<svg width="500" height="550" viewBox="0 0 500 550" xmlns="http://www.w3.org/2000/svg">
  <rect width="500" height="550" fill="#f0f4f8" />
  
  <text x="30" y="40" font-family="Arial, sans-serif" font-size="24" fill="#334e68">Before move to s2:</text>
  
  <rect x="50" y="80" width="180" height="150" fill="none" stroke="#333" stroke-width="2" stroke-dasharray="5,5" rx="10" />
  <text x="60" y="75" font-family="Arial, sans-serif" font-weight="bold" font-size="14">Stack</text>
  
  <rect x="300" y="80" width="150" height="80" fill="none" stroke="#333" stroke-width="2" stroke-dasharray="5,5" rx="10" />
  <text x="310" y="75" font-family="Arial, sans-serif" font-weight="bold" font-size="14">Heap</text>

  <text x="70" y="105" font-family="Arial, sans-serif" font-style="italic" font-size="14">s1</text>
  <rect x="70" y="110" width="140" height="90" fill="white" stroke="black" stroke-width="2" />
  <line x1="160" y1="110" x2="160" y2="200" stroke="black" stroke-width="2" />
  <line x1="70" y1="140" x2="210" y2="140" stroke="black" stroke-width="1" />
  <line x1="70" y1="170" x2="210" y2="170" stroke="black" stroke-width="1" />
  
  <text x="75" y="130" font-family="monospace" font-size="14">capacity</text> <text x="180" y="130" font-family="monospace" font-size="14">5</text>
  <text x="75" y="160" font-family="monospace" font-size="14">ptr</text>      <circle cx="185" cy="155" r="4" fill="black" />
  <text x="75" y="190" font-family="monospace" font-size="14">len</text>      <text x="180" y="190" font-family="monospace" font-size="14">5</text>

  <rect x="320" y="115" width="100" height="30" fill="white" stroke="black" stroke-width="2" />
  <text x="325" y="135" font-family="monospace" font-size="16" letter-spacing="4">Hello</text>
  
  <line x1="185" y1="155" x2="310" y2="130" stroke="black" stroke-width="2" marker-end="url(#arrowhead)" />

  <line x1="20" y1="250" x2="480" y2="250" stroke="#cbd5e0" stroke-width="1" />

  <text x="30" y="290" font-family="Arial, sans-serif" font-size="24" fill="#334e68">After move to s2:</text>

  <rect x="50" y="320" width="180" height="210" fill="none" stroke="#333" stroke-width="2" stroke-dasharray="5,5" rx="10" />
  <text x="60" y="315" font-family="Arial, sans-serif" font-weight="bold" font-size="14">Stack</text>
  
  <rect x="300" y="360" width="150" height="80" fill="none" stroke="#333" stroke-width="2" stroke-dasharray="5,5" rx="10" />
  <text x="310" y="355" font-family="Arial, sans-serif" font-weight="bold" font-size="14">Heap</text>

  <text x="70" y="340" font-family="Arial, sans-serif" font-style="italic" font-size="12" fill="#718096">s1 (inaccessible)</text>
  <rect x="70" y="345" width="140" height="70" fill="#e2e8f0" stroke="#718096" stroke-width="2" />
  <line x1="160" y1="345" x2="160" y2="415" stroke="#718096" stroke-width="2" />
  <text x="75" y="365" font-family="monospace" font-size="12" fill="#718096">capacity</text>
  <text x="75" y="385" font-family="monospace" font-size="12" fill="#718096">ptr</text> <circle cx="185" cy="380" r="3" fill="#718096" />
  <text x="75" y="405" font-family="monospace" font-size="12" fill="#718096">len</text>

  <text x="70" y="440" font-family="Arial, sans-serif" font-style="italic" font-size="14">s2</text>
  <rect x="70" y="445" width="140" height="70" fill="white" stroke="black" stroke-width="2" />
  <line x1="160" y1="445" x2="160" y2="515" stroke="black" stroke-width="2" />
  <text x="75" y="465" font-family="monospace" font-size="14">capacity</text> <text x="180" y="465" font-family="monospace" font-size="14">5</text>
  <text x="75" y="485" font-family="monospace" font-size="14">ptr</text>      <circle cx="185" cy="480" r="4" fill="black" />
  <text x="75" y="505" font-family="monospace" font-size="14">len</text>      <text x="180" y="505" font-family="monospace" font-size="14">5</text>

  <rect x="320" y="385" width="100" height="30" fill="white" stroke="black" stroke-width="2" />
  <text x="325" y="405" font-family="monospace" font-size="16" letter-spacing="4">Hello</text>

  <path d="M 185 380 L 255 380 L 255 430 L 310 405" fill="none" stroke="#718096" stroke-width="2" />
  <path d="M 185 480 L 255 480 L 255 430 L 310 405" fill="none" stroke="black" stroke-width="2" marker-end="url(#arrowhead)" />

  <defs>
    <marker id="arrowhead" markerWidth="10" markerHeight="7" refX="0" refY="3.5" orient="auto">
      <polygon points="0 0, 10 3.5, 0 7" />
    </marker>
  </defs>
</svg>
