<?xml version="1.0" ?>
<svg xmlns="http://www.w3.org/2000/svg" xmlns:ev="http://www.w3.org/2001/xml-events" xmlns:xlink="http://www.w3.org/1999/xlink" baseProfile="full" version="1.1" height="465" width="745" >
<line fill="none" stroke="#000000" stroke-width="2" x1="400" y1="55.0" x2="400" y2="85.0" />
<polygon fill="#000000" stroke="#000000" stroke-width="1" transform="rotate(225, 400, 86.0)" points="400,86.0 407.5,101.0 415,93.5 "/>
<rect fill="#0000aa" stroke="none" stroke-width="1" rx="25.0" ry="25.0" height="50" width="170" x="315.0" y="5.0" />
<text xml:space="preserve" fill="#ffffff" stroke="#ffffff" stroke-width="0.5" text-align="left" font-size="14px" font-family='Courier New' font-weight="normal"  text-anchor="middle" x="400" y="33">Is_Positive</text>
<line fill="none" stroke="#000000" stroke-width="2" x1="400" y1="135.0" x2="272.5" y2="165.0" />
<polygon fill="#000000" stroke="#000000" stroke-width="1" transform="rotate(290, 271.5, 165.0)" points="271.5,165.0 279.0,180.0 286.5,172.5 "/>
<text xml:space="preserve" transform="rotate(343, 333.25, 147.0)" fill="#00aa00" stroke="none" stroke-width="1" text-align="left" font-size="14px" font-family='arial' font-weight="normal" font-style="italic"  x="333.25" y="147.0">true</text>
<line fill="none" stroke="#000000" stroke-width="2" x1="400" y1="135.0" x2="527.5" y2="165.0" />
<polygon fill="#000000" stroke="#000000" stroke-width="1" transform="rotate(150, 528.5, 165.0)" points="528.5,165.0 536.0,180.0 543.5,172.5 "/>
<text xml:space="preserve" transform="rotate(13, 466.75, 147.0)" fill="#aa0000" stroke="none" stroke-width="1" text-align="left" font-size="14px" font-family='arial' font-weight="normal" font-style="italic"  x="466.75" y="147.0">false</text>
<polygon fill="#00aaaa" stroke="none" stroke-width="1" points="400,85.0 315.0,110 400,135.0 485.0,110 "/>
<text xml:space="preserve" fill="#ffffff" stroke="#ffffff" stroke-width="0.5" text-align="left" font-size="14px" font-family='Courier New' font-weight="normal"  text-anchor="middle" x="400" y="113">if X > 0</text>
<line fill="none" stroke="#000000" stroke-width="2" x1="271.5" y1="214.0" x2="400" y2="245.0" />
<polygon fill="#000000" stroke="#000000" stroke-width="1" transform="rotate(150, 400.5, 245.0)" points="400.5,245.0 408.0,260.0 415.5,252.5 "/>
<rect fill="#aa00aa" stroke="none" stroke-width="1" height="50" width="170" x="187.5" y="165.0" />
<text xml:space="preserve" fill="#ffffff" stroke="#ffffff" stroke-width="0.5" text-align="left" font-size="14px" font-family='Courier New' font-weight="normal"  text-anchor="middle" x="272.5" y="193">return True</text>
<line fill="none" stroke="#000000" stroke-width="2" x1="529.5" y1="213.0" x2="400" y2="245.0" />
<polygon fill="#000000" stroke="#000000" stroke-width="1" transform="rotate(290, 400.0, 245.0)" points="400.0,245.0 407.5,260.0 415.0,252.5 "/>
<rect fill="#aa00aa" stroke="none" stroke-width="1" height="50" width="170" x="442.5" y="165.0" />
<text xml:space="preserve" fill="#ffffff" stroke="#ffffff" stroke-width="0.5" text-align="left" font-size="14px" font-family='Courier New' font-weight="normal"  text-anchor="middle" x="527.5" y="193">return False</text>
<line fill="none" stroke="#000000" stroke-width="2" x1="400" y1="295.0" x2="400" y2="325.0" />
<polygon fill="#000000" stroke="#000000" stroke-width="1" transform="rotate(225, 400, 326.0)" points="400,326.0 407.5,341.0 415,333.5 "/>
<rect fill="#aaaa00" stroke="none" stroke-width="1" rx="25.0" ry="25.0" height="50" width="170" x="315.0" y="245.0" />
<text xml:space="preserve" fill="#ffffff" stroke="#ffffff" stroke-width="0.5" text-align="left" font-size="14px" font-family='Courier New' font-weight="normal"  text-anchor="middle" x="400" y="273">Is_Positive</text>
<line fill="none" stroke="#000000" stroke-width="2" x1="400" y1="375.0" x2="400" y2="405.0" />
<polygon fill="#000000" stroke="#000000" stroke-width="1" transform="rotate(225, 400, 406.0)" points="400,406.0 407.5,421.0 415,413.5 "/>
<text xml:space="preserve" fill="#00aa00" stroke="none" stroke-width="1" text-align="left" font-size="14px" font-family='arial' font-weight="normal" font-style="italic"  x="403.0" y="385.0">true</text>
<line fill="none" stroke="#000000" stroke-width="2" x1="400" y1="350" x2="570" y2="350" />
<polygon fill="#000000" stroke="#000000" stroke-width="1" transform="rotate(135, 570.75, 350)" points="570.75,350 578.25,365 585.75,357.5 "/>
<text xml:space="preserve" transform="rotate(0, 495.0, 347.0)" fill="#aa0000" stroke="none" stroke-width="1" text-align="left" font-size="14px" font-family='arial' font-weight="normal" font-style="italic"  x="495.0" y="347.0">false</text>
<polygon fill="#00aaaa" stroke="none" stroke-width="1" points="400,325.0 315.0,350 400,375.0 485.0,350 "/>
<text xml:space="preserve" fill="#ffffff" stroke="#ffffff" stroke-width="0.5" text-align="left" font-size="14px" font-family='Courier New' font-weight="normal"  text-anchor="middle" x="400" y="353">'Result = (X>0)</text>
<rect fill="#aa00aa" stroke="none" stroke-width="1" height="50" width="170" x="570.0" y="325.0" />
<text xml:space="preserve" fill="#ffffff" stroke="#ffffff" stroke-width="0.5" text-align="left" font-size="14px" font-family='Courier New' font-weight="normal"  text-anchor="middle" x="655.0" y="353">Assertion_Error</text>
<rect fill="#aa00aa" stroke="none" stroke-width="1" height="50" width="170" x="315.0" y="405.0" />
<text xml:space="preserve" fill="#ffffff" stroke="#ffffff" stroke-width="0.5" text-align="left" font-size="14px" font-family='Courier New' font-weight="normal"  text-anchor="middle" x="400" y="433">return to caller</text>
</svg>
