<?xml version="1.0" ?>
<svg xmlns="http://www.w3.org/2000/svg" xmlns:ev="http://www.w3.org/2001/xml-events" xmlns:xlink="http://www.w3.org/1999/xlink" baseProfile="full" version="1.1" height="175" width="350" >
<rect fill="#2c5aa0" stroke="#000088" stroke-width="1" height="66.0" width="132.0" x="10" y="55" />
<text xml:space="preserve" fill="#ffffff" stroke="#ffffff" stroke-width="0.25"  text-align="left" font-size="10px" font-family='Monospace' font-weight="normal"  x="15" y="70.6" >with Department;</text>
<text xml:space="preserve" fill="#ffffff" stroke="#ffffff" stroke-width="0.25"  text-align="left" font-size="10px" font-family='Monospace' font-weight="normal"  x="15" y="82.6" >package Personnel is</text>
<text xml:space="preserve" fill="#ffffff" stroke="#ffffff" stroke-width="0.25"  text-align="left" font-size="10px" font-family='Monospace' font-weight="normal"  x="15" y="94.6" >...</text>
<text xml:space="preserve" fill="#ffffff" stroke="#ffffff" stroke-width="0.25"  text-align="left" font-size="10px" font-family='Monospace' font-weight="normal"  x="15" y="106.6" >end Personnel;</text>
<rect fill="#2c5aa0" stroke="#000088" stroke-width="1" height="66.0" width="132.0" x="210" y="55" />
<text xml:space="preserve" fill="#ffffff" stroke="#ffffff" stroke-width="0.25"  text-align="left" font-size="10px" font-family='Monospace' font-weight="normal"  x="215" y="70.6" >with Personnel;</text>
<text xml:space="preserve" fill="#ffffff" stroke="#ffffff" stroke-width="0.25"  text-align="left" font-size="10px" font-family='Monospace' font-weight="normal"  x="215" y="82.6" >package Department is</text>
<text xml:space="preserve" fill="#ffffff" stroke="#ffffff" stroke-width="0.25"  text-align="left" font-size="10px" font-family='Monospace' font-weight="normal"  x="215" y="94.6" >...</text>
<text xml:space="preserve" fill="#ffffff" stroke="#ffffff" stroke-width="0.25"  text-align="left" font-size="10px" font-family='Monospace' font-weight="normal"  x="215" y="106.6" >end Department;</text>
<path fill="#ff0000" stroke="#000088" stroke-width="1.5"  d="M 72.25 55 A 119 83.3 0 0 1 283.5 47.5 L 291.0 47.5 L 276.0 55 L 261.0 47.5 L 268.5 47.5 A 121 84.69999999999999 0 0 0 79.75 55 Z"/>
<path fill="#ff0000" stroke="#000088" stroke-width="1.5"  d="M 272.25 121.0 A 119 83.3 0 0 1 83.5 128.5 L 91.0 128.5 L 76.0 121.0 L 61.0 128.5 L 68.5 128.5 A 121 84.69999999999999 0 0 0 279.75 121.0 Z"/>
</svg>
