<?xml version="1.0" ?>
<svg xmlns="http://www.w3.org/2000/svg" xmlns:ev="http://www.w3.org/2001/xml-events" xmlns:xlink="http://www.w3.org/1999/xlink" baseProfile="full" version="1.1" height="290" width="350" >
<rect fill="none" stroke="#000000" stroke-width="2" height="40" width="340" x="5" y="5" />
<text xml:space="preserve" fill="#000000" stroke="none"  text-align="left" font-size="12px" font-family='Arial' font-weight="normal"  x="14.5673828125" y="23.72" >      <tspan x="14.5673828125" y="23.72"  style="fill:#000000">In a</tspan>      <tspan x="37.9169921875" y="23.72"  style="fill:#000000;stroke:#000000;stroke-width:0.75">package</tspan>      <tspan x="86.6201171875" y="23.72"  style="fill:#000000">the</tspan>      <tspan x="106.6357421875" y="23.72"  style="fill:#000000;stroke:#000000;stroke-width:0.75">body</tspan>      <tspan x="135.9912109375" y="23.72"  style="fill:#000000">sees everything the</tspan>      <tspan x="243.3876953125" y="23.72"  style="fill:#000000;stroke:#000000;stroke-width:0.75">private part</tspan>      <tspan x="306.7509765625" y="23.72"  style="fill:#000000">sees,</tspan></text>
<text xml:space="preserve" fill="#000000" stroke="none"  text-align="left" font-size="12px" font-family='Arial' font-weight="normal"  x="23.248046875" y="38.12" >      <tspan x="23.248046875" y="38.12"  style="fill:#000000">and the</tspan>      <tspan x="66.619140625" y="38.12"  style="fill:#000000;stroke:#000000;stroke-width:0.75">private part</tspan>      <tspan x="129.982421875" y="38.12"  style="fill:#000000">sees everything the</tspan>      <tspan x="237.37890625" y="38.12"  style="fill:#000000;stroke:#000000;stroke-width:0.75">visible part</tspan>      <tspan x="298.0703125" y="38.12"  style="fill:#000000">sees.</tspan></text>
<rect fill="#80ffe6" stroke="#80ffe6" stroke-width="2" height="40" width="340" x="5" y="50" />
<text xml:space="preserve" fill="#000000" stroke="none"  text-align="left" font-size="12px" font-family='Arial' font-weight="normal"  x="64.9462890625" y="68.72" >      <tspan x="64.9462890625" y="68.72"  style="fill:#000000">Our</tspan>      <tspan x="88.2841796875" y="68.72"  style="fill:#000000;stroke:#000000;stroke-width:0.75">private child</tspan>      <tspan x="155.6494140625" y="68.72"  style="fill:#000000">can see our</tspan>      <tspan x="221.6904296875" y="68.72"  style="fill:#000000;stroke:#000000;stroke-width:0.75">private part,</tspan></text>
<text xml:space="preserve" fill="#000000" stroke="none"  text-align="left" font-size="12px" font-family='Arial' font-weight="normal"  x="89.9599609375" y="83.12" >      <tspan x="89.9599609375" y="83.12"  style="fill:#000000">and</tspan>      <tspan x="113.3154296875" y="83.12"  style="fill:#000000;stroke:#000000;stroke-width:0.75">visible part,</tspan>      <tspan x="177.3408203125" y="83.12"  style="fill:#000000">from</tspan>      <tspan x="204.6748046875" y="83.12"  style="fill:#000000;stroke:#000000;stroke-width:0.75">anywhere.</tspan></text>
<rect fill="none" stroke="#000000" stroke-width="2" height="162.0" width="110" x="5" y="120" />
<text xml:space="preserve" fill="#000000" stroke="none"  text-align="center" font-size="12px" font-family='arial' font-weight="normal" font-style="italic"  text-anchor="middle" x="60.0" y="142.5" >Our_Unit</text>
<rect fill="#80ffe6" stroke="#000000" stroke-width="2" height="18.0" width="110" x="5" y="156.0" />
<text xml:space="preserve" fill="#000000" stroke="none"  text-align="left" font-size="12px" font-family='Arial' font-weight="normal"  text-anchor="middle" x="60.0" y="169.68" >Visible Part</text>
<polygon fill="#000000" stroke="#000000" stroke-width="1" transform="rotate(45, 60.0, 175.5)" points="60.0,175.5 65.4,186.3 70.8,180.9 "/>
<line fill="none" stroke="#000000" stroke-width="2" x1="60.0" y1="176.75" x2="60.0" y2="210.75" />
<rect fill="#80ffe6" stroke="#000000" stroke-width="2" height="18.0" width="110" x="5" y="210.0" />
<text xml:space="preserve" fill="#000000" stroke="none"  text-align="left" font-size="12px" font-family='Arial' font-weight="normal"  text-anchor="middle" x="60.0" y="223.68" >Private Part</text>
<polygon fill="#000000" stroke="#000000" stroke-width="1" transform="rotate(45, 60.0, 229.5)" points="60.0,229.5 65.4,240.3 70.8,234.9 "/>
<line fill="none" stroke="#000000" stroke-width="2" x1="60.0" y1="230.75" x2="60.0" y2="264.75" />
<rect fill="none" stroke="#000000" stroke-width="2" height="18.0" width="110" x="5" y="264.0" />
<text xml:space="preserve" fill="#000000" stroke="none"  text-align="left" font-size="12px" font-family='Arial' font-weight="normal"  text-anchor="middle" x="60.0" y="277.68" >Body</text>
<line fill="none" stroke="#80ffe6" stroke-width="2" x1="205.0" y1="165.0" x2="235" y2="165.0" />
<polygon fill="#80ffe6" stroke="#80ffe6" stroke-width="1" transform="rotate(-45, 117.5, 219.0)" points="117.5,219.0 122.9,229.8 128.3,224.4 "/>
<line fill="none" stroke="#80ffe6" stroke-width="2" x1="118.75" y1="219.0" x2="235" y2="219.0" />
<line fill="none" stroke="#80ffe6" stroke-width="2" x1="205.0" y1="273.0" x2="235" y2="273.0" />
<line fill="none" stroke="#80ffe6" stroke-width="2" x1="205.0" y1="164.0" x2="205.0" y2="274.0" />
<rect fill="#80ffe6" stroke="#000000" stroke-width="2" height="162.0" width="110" x="235" y="120" />
<text xml:space="preserve" fill="#000000" stroke="none"  text-align="center" font-size="12px" font-family='arial' font-weight="normal" font-style="italic"  text-anchor="middle" x="290.0" y="142.5" >Our_Unit.Private_Child</text>
<rect fill="none" stroke="#000000" stroke-width="2" height="18.0" width="110" x="235" y="156.0" />
<text xml:space="preserve" fill="#000000" stroke="none"  text-align="left" font-size="12px" font-family='Arial' font-weight="normal"  text-anchor="middle" x="290.0" y="169.68" >Visible Part</text>
<polygon fill="#000000" stroke="#000000" stroke-width="1" transform="rotate(45, 290.0, 175.5)" points="290.0,175.5 295.4,186.3 300.8,180.9 "/>
<line fill="none" stroke="#000000" stroke-width="2" x1="290.0" y1="176.75" x2="290.0" y2="210.75" />
<rect fill="none" stroke="#000000" stroke-width="2" height="18.0" width="110" x="235" y="210.0" />
<text xml:space="preserve" fill="#000000" stroke="none"  text-align="left" font-size="12px" font-family='Arial' font-weight="normal"  text-anchor="middle" x="290.0" y="223.68" >Private Part</text>
<polygon fill="#000000" stroke="#000000" stroke-width="1" transform="rotate(45, 290.0, 229.5)" points="290.0,229.5 295.4,240.3 300.8,234.9 "/>
<line fill="none" stroke="#000000" stroke-width="2" x1="290.0" y1="230.75" x2="290.0" y2="264.75" />
<rect fill="none" stroke="#000000" stroke-width="2" height="18.0" width="110" x="235" y="264.0" />
<text xml:space="preserve" fill="#000000" stroke="none"  text-align="left" font-size="12px" font-family='Arial' font-weight="normal"  text-anchor="middle" x="290.0" y="277.68" >Body</text>
</svg>
