<?xml version="1.0" ?>
<svg xmlns="http://www.w3.org/2000/svg" xmlns:ev="http://www.w3.org/2001/xml-events" xmlns:xlink="http://www.w3.org/1999/xlink" baseProfile="full" version="1.1" height="280" width="350" >
<rect fill="none" stroke="#000000" stroke-width="2" height="40" width="340" x="5" y="5" />
<text xml:space="preserve" fill="#000000" stroke="none"  text-align="left" font-size="10px" font-family='Arial' font-weight="normal"  x="41.30615234375" y="20.6" >      <tspan x="41.30615234375" y="20.6"  style="fill:#000000">In a</tspan>      <tspan x="60.76416015625" y="20.6"  style="fill:#000000;stroke:#000000;stroke-width:0.75">package</tspan>      <tspan x="101.35009765625" y="20.6"  style="fill:#000000">the</tspan>      <tspan x="118.02978515625" y="20.6"  style="fill:#000000;stroke:#000000;stroke-width:0.75">body</tspan>      <tspan x="142.49267578125" y="20.6"  style="fill:#000000">sees everything the</tspan>      <tspan x="231.98974609375" y="20.6"  style="fill:#000000;stroke:#000000;stroke-width:0.75">private part</tspan>      <tspan x="284.79248046875" y="20.6"  style="fill:#000000">sees,</tspan></text>
<text xml:space="preserve" fill="#000000" stroke="none"  text-align="left" font-size="10px" font-family='Arial' font-weight="normal"  x="48.5400390625" y="32.599999999999994" >      <tspan x="48.5400390625" y="32.599999999999994"  style="fill:#000000">and the</tspan>      <tspan x="84.6826171875" y="32.599999999999994"  style="fill:#000000;stroke:#000000;stroke-width:0.75">private part</tspan>      <tspan x="137.4853515625" y="32.599999999999994"  style="fill:#000000">sees everything the</tspan>      <tspan x="226.982421875" y="32.599999999999994"  style="fill:#000000;stroke:#000000;stroke-width:0.75">visible part</tspan>      <tspan x="277.55859375" y="32.599999999999994"  style="fill:#000000">sees.</tspan></text>
<rect fill="#ffb380" stroke="#ffb380" stroke-width="2" height="40" width="340" x="5" y="50" />
<text xml:space="preserve" fill="#000000" stroke="none"  text-align="left" font-size="10px" font-family='Arial' font-weight="normal"  x="57.978515625" y="65.6" >      <tspan x="57.978515625" y="65.6"  style="fill:#000000">Another</tspan>      <tspan x="95.78125" y="65.6"  style="fill:#000000;stroke:#000000;stroke-width:0.75">package</tspan>      <tspan x="136.3671875" y="65.6"  style="fill:#000000">can see our</tspan>      <tspan x="191.4013671875" y="65.6"  style="fill:#000000;stroke:#000000;stroke-width:0.75">visible part</tspan>      <tspan x="241.9775390625" y="65.6"  style="fill:#000000">(depending</tspan></text>
<text xml:space="preserve" fill="#000000" stroke="none"  text-align="left" font-size="10px" font-family='Arial' font-weight="normal"  x="87.51220703125" y="77.6" >      <tspan x="87.51220703125" y="77.6"  style="fill:#000000">on where the "with" is) but nothing else.</tspan></text>
<rect fill="none" stroke="#000000" stroke-width="2" height="135" width="110" x="5" y="120" />
<text xml:space="preserve" fill="none" stroke="#000000" stroke-width="1"  text-align="center" font-size="10px" font-family='arial' font-weight="normal" font-style="italic"  text-anchor="middle" x="60.0" y="138.75" >Our_Unit</text>
<rect fill="#ffb380" stroke="#000000" stroke-width="2" height="15" width="110" x="5" y="150" />
<text xml:space="preserve" fill="#000000" stroke="none"  text-align="left" font-size="10px" font-family='Arial' font-weight="normal"  text-anchor="middle" x="60.0" y="161.4" >Visible Part</text>
<polygon fill="#000000" stroke="#000000" stroke-width="1" transform="rotate(45, 60.0, 166.5)" points="60.0,166.5 64.5,175.5 69.0,171.0 "/>
<line fill="none" stroke="#000000" stroke-width="2" x1="60.0" y1="167.75" x2="60.0" y2="195.75" />
<rect fill="none" stroke="#000000" stroke-width="2" height="15" width="110" x="5" y="195" />
<text xml:space="preserve" fill="#000000" stroke="none"  text-align="left" font-size="10px" font-family='Arial' font-weight="normal"  text-anchor="middle" x="60.0" y="206.4" >Private Part</text>
<polygon fill="#000000" stroke="#000000" stroke-width="1" transform="rotate(45, 60.0, 211.5)" points="60.0,211.5 64.5,220.5 69.0,216.0 "/>
<line fill="none" stroke="#000000" stroke-width="2" x1="60.0" y1="212.75" x2="60.0" y2="240.75" />
<rect fill="none" stroke="#000000" stroke-width="2" height="15" width="110" x="5" y="240" />
<text xml:space="preserve" fill="#000000" stroke="none"  text-align="left" font-size="10px" font-family='Arial' font-weight="normal"  text-anchor="middle" x="60.0" y="251.4" >Body</text>
<line fill="none" stroke="#ffb380" stroke-width="2" x1="118.75" y1="157.5" x2="235" y2="157.5" />
<polygon fill="#ffb380" stroke="#ffb380" stroke-width="1" transform="rotate(-45, 117.5, 157.5)" points="117.5,157.5 122.0,166.5 126.5,162.0 "/>
<rect fill="#ffb380" stroke="#000000" stroke-width="2" height="135" width="110" x="235" y="120" />
<text xml:space="preserve" fill="none" stroke="#000000" stroke-width="1"  text-align="center" font-size="10px" font-family='arial' font-weight="normal" font-style="italic"  text-anchor="middle" x="290.0" y="138.75" >Other_Unit</text>
<rect fill="none" stroke="#000000" stroke-width="2" height="15" width="110" x="235" y="150" />
<text xml:space="preserve" fill="#000000" stroke="none"  text-align="left" font-size="10px" font-family='Arial' font-weight="normal"  text-anchor="middle" x="290.0" y="161.4" >Visible Part</text>
<polygon fill="#000000" stroke="#000000" stroke-width="1" transform="rotate(45, 290.0, 166.5)" points="290.0,166.5 294.5,175.5 299.0,171.0 "/>
<line fill="none" stroke="#000000" stroke-width="2" x1="290.0" y1="167.75" x2="290.0" y2="195.75" />
<rect fill="none" stroke="#000000" stroke-width="2" height="15" width="110" x="235" y="195" />
<text xml:space="preserve" fill="#000000" stroke="none"  text-align="left" font-size="10px" font-family='Arial' font-weight="normal"  text-anchor="middle" x="290.0" y="206.4" >Private Part</text>
<polygon fill="#000000" stroke="#000000" stroke-width="1" transform="rotate(45, 290.0, 211.5)" points="290.0,211.5 294.5,220.5 299.0,216.0 "/>
<line fill="none" stroke="#000000" stroke-width="2" x1="290.0" y1="212.75" x2="290.0" y2="240.75" />
<rect fill="none" stroke="#000000" stroke-width="2" height="15" width="110" x="235" y="240" />
<text xml:space="preserve" fill="#000000" stroke="none"  text-align="left" font-size="10px" font-family='Arial' font-weight="normal"  text-anchor="middle" x="290.0" y="251.4" >Body</text>
</svg>
