<?xml version="1.0" ?>
<svg xmlns="http://www.w3.org/2000/svg" xmlns:ev="http://www.w3.org/2001/xml-events" xmlns:xlink="http://www.w3.org/1999/xlink" baseProfile="full" version="1.1" height="280" width="390" >
<rect fill="none" stroke="#000000" stroke-width="2" height="40" width="380" x="5" y="5" />
<text xml:space="preserve" fill="#000000" stroke="none"  text-align="left" font-size="10px" font-family='Arial' font-weight="normal"  x="55.43636924342104" y="20.6" >      <tspan x="55.43636924342104" y="20.6"  style="fill:#000000">In a</tspan>      <tspan x="74.89437705592104" y="20.6"  style="fill:#000000;stroke:#000000;stroke-width:0.75">package</tspan>      <tspan x="115.48031455592104" y="20.6"  style="fill:#000000">the</tspan>      <tspan x="132.16000205592104" y="20.6"  style="fill:#000000;stroke:#000000;stroke-width:0.75">body</tspan>      <tspan x="156.62289268092104" y="20.6"  style="fill:#000000">sees everything the</tspan>      <tspan x="246.11996299342104" y="20.6"  style="fill:#000000;stroke:#000000;stroke-width:0.75">private section</tspan>      <tspan x="313.37582236842104" y="20.6"  style="fill:#000000">sees,</tspan></text>
<text xml:space="preserve" fill="#000000" stroke="none"  text-align="left" font-size="10px" font-family='Arial' font-weight="normal"  x="52.51953125" y="32.599999999999994" >      <tspan x="52.51953125" y="32.599999999999994"  style="fill:#000000">and the</tspan>      <tspan x="88.662109375" y="32.599999999999994"  style="fill:#000000;stroke:#000000;stroke-width:0.75">private section</tspan>      <tspan x="155.91796875" y="32.599999999999994"  style="fill:#000000">sees everything the</tspan>      <tspan x="245.4150390625" y="32.599999999999994"  style="fill:#000000;stroke:#000000;stroke-width:0.75">visible section</tspan>      <tspan x="310.4443359375" y="32.599999999999994"  style="fill:#000000">sees.</tspan></text>
<rect fill="#ddffdd" stroke="#ddffdd" stroke-width="2" height="40" width="380" x="5" y="50" />
<text xml:space="preserve" fill="#000000" stroke="none"  text-align="left" font-size="10px" font-family='Arial' font-weight="normal"  x="75.810546875" y="65.6" >      <tspan x="75.810546875" y="65.6"  style="fill:#000000">Our</tspan>      <tspan x="95.2587890625" y="65.6"  style="fill:#000000;stroke:#000000;stroke-width:0.75">child's visible section</tspan>      <tspan x="190.5419921875" y="65.6"  style="fill:#000000">can see our</tspan>      <tspan x="245.576171875" y="65.6"  style="fill:#000000;stroke:#000000;stroke-width:0.75">visible section,</tspan></text>
<text xml:space="preserve" fill="#000000" stroke="none"  text-align="left" font-size="10px" font-family='Arial' font-weight="normal"  x="54.27991365131578" y="77.6" >      <tspan x="54.27991365131578" y="77.6"  style="fill:#000000">and its</tspan>      <tspan x="86.52112458881578" y="77.6"  style="fill:#000000;stroke:#000000;stroke-width:0.75">private section</tspan>      <tspan x="153.77698396381578" y="77.6"  style="fill:#000000">(and</tspan>      <tspan x="176.56995271381578" y="77.6"  style="fill:#000000;stroke:#000000;stroke-width:0.75">body),</tspan>      <tspan x="207.14124177631578" y="77.6"  style="fill:#000000">) can see our</tspan>      <tspan x="268.2838199013158" y="77.6"  style="fill:#000000;stroke:#000000;stroke-width:0.75">private section.</tspan></text>
<rect fill="none" stroke="#000000" stroke-width="2" height="135" width="110" x="5" y="120" />
<text xml:space="preserve" fill="#000000" stroke="#000000" stroke-width="0.75"  text-align="center" font-size="10px" font-family='arial' font-weight="normal" font-style="italic"  text-anchor="middle" x="60.0" y="138.75" >Our_Unit</text>
<rect fill="#ddffdd" stroke="#000000" stroke-width="2" height="15" width="110" x="5" y="150" />
<text xml:space="preserve" fill="#000000" stroke="none"  text-align="left" font-size="10px" font-family='Arial' font-weight="normal"  text-anchor="middle" x="60.0" y="161.4" >Visible Section</text>
<polygon fill="#000000" stroke="#000000" stroke-width="1" transform="rotate(45, 60.0, 166.5)" points="60.0,166.5 64.5,175.5 69.0,171.0 "/>
<line fill="none" stroke="#000000" stroke-width="2" x1="60.0" y1="167.75" x2="60.0" y2="195.75" />
<rect fill="#ddffdd" stroke="#000000" stroke-width="2" height="15" width="110" x="5" y="195" />
<text xml:space="preserve" fill="#000000" stroke="none"  text-align="left" font-size="10px" font-family='Arial' font-weight="normal"  text-anchor="middle" x="60.0" y="206.4" >Private Section</text>
<polygon fill="#000000" stroke="#000000" stroke-width="1" transform="rotate(45, 60.0, 211.5)" points="60.0,211.5 64.5,220.5 69.0,216.0 "/>
<line fill="none" stroke="#000000" stroke-width="2" x1="60.0" y1="212.75" x2="60.0" y2="240.75" />
<rect fill="none" stroke="#000000" stroke-width="2" height="15" width="110" x="5" y="240" />
<text xml:space="preserve" fill="#000000" stroke="none"  text-align="left" font-size="10px" font-family='Arial' font-weight="normal"  text-anchor="middle" x="60.0" y="251.4" >Body</text>
<line fill="none" stroke="#ddffdd" stroke-width="2" x1="118.75" y1="157.5" x2="275" y2="157.5" />
<polygon fill="#ddffdd" stroke="#ddffdd" stroke-width="1" transform="rotate(-45, 117.5, 157.5)" points="117.5,157.5 122.0,166.5 126.5,162.0 "/>
<line fill="none" stroke="#ddffdd" stroke-width="2" x1="118.75" y1="202.5" x2="275" y2="202.5" />
<polygon fill="#ddffdd" stroke="#ddffdd" stroke-width="1" transform="rotate(-45, 117.5, 202.5)" points="117.5,202.5 122.0,211.5 126.5,207.0 "/>
<line fill="none" stroke="#ddffdd" stroke-width="2" x1="235.0" y1="247.5" x2="275" y2="247.5" />
<line fill="none" stroke="#ddffdd" stroke-width="2" x1="235.0" y1="201.5" x2="235.0" y2="248.5" />
<rect fill="#ddffdd" stroke="#000000" stroke-width="2" height="135" width="110" x="275" y="120" />
<text xml:space="preserve" fill="#000000" stroke="#000000" stroke-width="0.75"  text-align="center" font-size="10px" font-family='arial' font-weight="normal" font-style="italic"  text-anchor="middle" x="330.0" y="138.75" >Our_Unit.Public_Child</text>
<rect fill="none" stroke="#000000" stroke-width="2" height="15" width="110" x="275" y="150" />
<text xml:space="preserve" fill="#000000" stroke="none"  text-align="left" font-size="10px" font-family='Arial' font-weight="normal"  text-anchor="middle" x="330.0" y="161.4" >Visible Section</text>
<polygon fill="#000000" stroke="#000000" stroke-width="1" transform="rotate(45, 330.0, 166.5)" points="330.0,166.5 334.5,175.5 339.0,171.0 "/>
<line fill="none" stroke="#000000" stroke-width="2" x1="330.0" y1="167.75" x2="330.0" y2="195.75" />
<rect fill="none" stroke="#000000" stroke-width="2" height="15" width="110" x="275" y="195" />
<text xml:space="preserve" fill="#000000" stroke="none"  text-align="left" font-size="10px" font-family='Arial' font-weight="normal"  text-anchor="middle" x="330.0" y="206.4" >Private Section</text>
<polygon fill="#000000" stroke="#000000" stroke-width="1" transform="rotate(45, 330.0, 211.5)" points="330.0,211.5 334.5,220.5 339.0,216.0 "/>
<line fill="none" stroke="#000000" stroke-width="2" x1="330.0" y1="212.75" x2="330.0" y2="240.75" />
<rect fill="none" stroke="#000000" stroke-width="2" height="15" width="110" x="275" y="240" />
<text xml:space="preserve" fill="#000000" stroke="none"  text-align="left" font-size="10px" font-family='Arial' font-weight="normal"  text-anchor="middle" x="330.0" y="251.4" >Body</text>
</svg>
