<?xml version="1.0" ?>
<svg xmlns="http://www.w3.org/2000/svg" xmlns:ev="http://www.w3.org/2001/xml-events" xmlns:xlink="http://www.w3.org/1999/xlink" baseProfile="full" version="1.1" height="280" width="390" >
<rect fill="none" stroke="#000000" stroke-width="2" height="40" width="380" x="5" y="5" />
<text xml:space="preserve" fill="#000000" stroke="none"  text-align="left" font-size="9px" font-family='Monospace' font-weight="normal"  x="41.074951171875" y="19.3" >      <tspan x="41.074951171875" y="19.3"  style="fill:#000000">In a</tspan>      <tspan x="68.079345703125" y="19.3"  style="fill:#000000;stroke:#000000;stroke-width:0.75">package</tspan>      <tspan x="111.286376953125" y="19.3"  style="fill:#000000">the</tspan>      <tspan x="132.889892578125" y="19.3"  style="fill:#000000;stroke:#000000;stroke-width:0.75">body</tspan>      <tspan x="159.894287109375" y="19.3"  style="fill:#000000">sees everything the</tspan>      <tspan x="267.911865234375" y="19.3"  style="fill:#000000;stroke:#000000;stroke-width:0.75">private section</tspan>      <tspan x="354.325927734375" y="19.3"  style="fill:#000000">sees,</tspan></text>
<text xml:space="preserve" fill="#000000" stroke="none"  text-align="left" font-size="9px" font-family='Monospace' font-weight="normal"  x="30.273193359375" y="30.299999999999997" >      <tspan x="30.273193359375" y="30.299999999999997"  style="fill:#000000">and the</tspan>      <tspan x="73.480224609375" y="30.299999999999997"  style="fill:#000000;stroke:#000000;stroke-width:0.75">private section</tspan>      <tspan x="159.894287109375" y="30.299999999999997"  style="fill:#000000">sees everything the</tspan>      <tspan x="267.911865234375" y="30.299999999999997"  style="fill:#000000;stroke:#000000;stroke-width:0.75">visible section</tspan>      <tspan x="354.325927734375" y="30.299999999999997"  style="fill:#000000">sees.</tspan></text>
<rect fill="#f08c10" stroke="#f08c10" stroke-width="2" height="40" width="380" x="5" y="50" />
<text xml:space="preserve" fill="#000000" stroke="none"  text-align="left" font-size="9px" font-family='Monospace' font-weight="normal"  x="86.982421875" y="64.3" >      <tspan x="86.982421875" y="64.3"  style="fill:#000000">Another</tspan>      <tspan x="130.189453125" y="64.3"  style="fill:#000000;stroke:#000000;stroke-width:0.75">package</tspan>      <tspan x="173.396484375" y="64.3"  style="fill:#000000">can see our</tspan>      <tspan x="238.20703125" y="64.3"  style="fill:#000000;stroke:#000000;stroke-width:0.75">visible section</tspan></text>
<text xml:space="preserve" fill="#000000" stroke="none"  text-align="left" font-size="9px" font-family='Monospace' font-weight="normal"  x="54.5771484375" y="75.3" >      <tspan x="54.5771484375" y="75.3"  style="fill:#000000">(depending on where the "with" is) but nothing else.</tspan></text>
<rect fill="none" stroke="#000000" stroke-width="2" height="135" width="110" x="5" y="120" />
<text xml:space="preserve" fill="#000000" stroke="#000000" stroke-width="0.75"  text-align="center" font-size="9px" font-family='arial' font-weight="normal" font-style="italic"  text-anchor="middle" x="60.0" y="138.75" >Our_Unit</text>
<rect fill="#f08c10" stroke="#000000" stroke-width="2" height="15" width="110" x="5" y="150" />
<text xml:space="preserve" fill="#000000" stroke="none"  text-align="left" font-size="9px" font-family='Monospace' font-weight="normal"  text-anchor="middle" x="60.0" y="160.45" >Visible Section</text>
<polygon fill="#000000" stroke="#000000" stroke-width="1" transform="rotate(45, 60.0, 166.5)" points="60.0,166.5 64.5,175.5 69.0,171.0 "/>
<line fill="none" stroke="#000000" stroke-width="2" x1="60.0" y1="167.75" x2="60.0" y2="195.75" />
<rect fill="none" stroke="#000000" stroke-width="2" height="15" width="110" x="5" y="195" />
<text xml:space="preserve" fill="#000000" stroke="none"  text-align="left" font-size="9px" font-family='Monospace' font-weight="normal"  text-anchor="middle" x="60.0" y="205.45" >Private Section</text>
<polygon fill="#000000" stroke="#000000" stroke-width="1" transform="rotate(45, 60.0, 211.5)" points="60.0,211.5 64.5,220.5 69.0,216.0 "/>
<line fill="none" stroke="#000000" stroke-width="2" x1="60.0" y1="212.75" x2="60.0" y2="240.75" />
<rect fill="none" stroke="#000000" stroke-width="2" height="15" width="110" x="5" y="240" />
<text xml:space="preserve" fill="#000000" stroke="none"  text-align="left" font-size="9px" font-family='Monospace' font-weight="normal"  text-anchor="middle" x="60.0" y="250.45" >Body</text>
<line fill="none" stroke="#f08c10" stroke-width="2" x1="118.75" y1="157.5" x2="275" y2="157.5" />
<polygon fill="#f08c10" stroke="#f08c10" stroke-width="1" transform="rotate(-45, 117.5, 157.5)" points="117.5,157.5 122.0,166.5 126.5,162.0 "/>
<rect fill="#f08c10" stroke="#000000" stroke-width="2" height="135" width="110" x="275" y="120" />
<text xml:space="preserve" fill="#000000" stroke="#000000" stroke-width="0.75"  text-align="center" font-size="9px" font-family='arial' font-weight="normal" font-style="italic"  text-anchor="middle" x="330.0" y="138.75" >Other_Unit</text>
<rect fill="none" stroke="#000000" stroke-width="2" height="15" width="110" x="275" y="150" />
<text xml:space="preserve" fill="#000000" stroke="none"  text-align="left" font-size="9px" font-family='Monospace' font-weight="normal"  text-anchor="middle" x="330.0" y="160.45" >Visible Section</text>
<polygon fill="#000000" stroke="#000000" stroke-width="1" transform="rotate(45, 330.0, 166.5)" points="330.0,166.5 334.5,175.5 339.0,171.0 "/>
<line fill="none" stroke="#000000" stroke-width="2" x1="330.0" y1="167.75" x2="330.0" y2="195.75" />
<rect fill="none" stroke="#000000" stroke-width="2" height="15" width="110" x="275" y="195" />
<text xml:space="preserve" fill="#000000" stroke="none"  text-align="left" font-size="9px" font-family='Monospace' font-weight="normal"  text-anchor="middle" x="330.0" y="205.45" >Private Section</text>
<polygon fill="#000000" stroke="#000000" stroke-width="1" transform="rotate(45, 330.0, 211.5)" points="330.0,211.5 334.5,220.5 339.0,216.0 "/>
<line fill="none" stroke="#000000" stroke-width="2" x1="330.0" y1="212.75" x2="330.0" y2="240.75" />
<rect fill="none" stroke="#000000" stroke-width="2" height="15" width="110" x="275" y="240" />
<text xml:space="preserve" fill="#000000" stroke="none"  text-align="left" font-size="9px" font-family='Monospace' font-weight="normal"  text-anchor="middle" x="330.0" y="250.45" >Body</text>
</svg>
