<?xml version="1.0" ?>
<svg xmlns="http://www.w3.org/2000/svg" xmlns:ev="http://www.w3.org/2001/xml-events" xmlns:xlink="http://www.w3.org/1999/xlink" baseProfile="full" version="1.1" height="245" width="350" >
<rect fill="none" stroke="#000000" stroke-width="2" height="40" width="340" x="5" y="5" />
<text xml:space="preserve" fill="#000000" stroke="none"  text-align="left" font-size="9px" font-family='Monospace' font-weight="normal"  x="12.9736328125" y="19.04" >      <tspan x="12.9736328125" y="19.04"  style="fill:#000000">In a</tspan>      <tspan x="39.97802734375" y="19.04"  style="fill:#000000;stroke:#000000;stroke-width:0.75">package</tspan>      <tspan x="83.18505859375" y="19.04"  style="fill:#000000">the</tspan>      <tspan x="104.78857421875" y="19.04"  style="fill:#000000;stroke:#000000;stroke-width:0.75">body</tspan>      <tspan x="131.79296875" y="19.04"  style="fill:#000000">sees everything the</tspan>      <tspan x="239.810546875" y="19.04"  style="fill:#000000;stroke:#000000;stroke-width:0.75">private part</tspan>      <tspan x="310.02197265625" y="19.04"  style="fill:#000000">sees,</tspan></text>
<text xml:space="preserve" fill="#000000" stroke="none"  text-align="left" font-size="9px" font-family='Monospace' font-weight="normal"  x="15.674072265625" y="29.839999999999996" >      <tspan x="15.674072265625" y="29.839999999999996"  style="fill:#000000">and the</tspan>      <tspan x="58.881103515625" y="29.839999999999996"  style="fill:#000000;stroke:#000000;stroke-width:0.75">private part</tspan>      <tspan x="129.092529296875" y="29.839999999999996"  style="fill:#000000">sees everything the</tspan>      <tspan x="237.110107421875" y="29.839999999999996"  style="fill:#000000;stroke:#000000;stroke-width:0.75">visible part</tspan>      <tspan x="307.321533203125" y="29.839999999999996"  style="fill:#000000">sees.</tspan></text>
<rect fill="#80ffe6" stroke="#80ffe6" stroke-width="2" height="40" width="340" x="5" y="50" />
<text xml:space="preserve" fill="#000000" stroke="none"  text-align="left" font-size="9px" font-family='Monospace' font-weight="normal"  x="58.881103515625" y="64.03999999999999" >      <tspan x="58.881103515625" y="64.03999999999999"  style="fill:#000000">Our</tspan>      <tspan x="80.484619140625" y="64.03999999999999"  style="fill:#000000;stroke:#000000;stroke-width:0.75">private child</tspan>      <tspan x="156.096923828125" y="64.03999999999999"  style="fill:#000000">can see our</tspan>      <tspan x="220.907470703125" y="64.03999999999999"  style="fill:#000000;stroke:#000000;stroke-width:0.75">private part,</tspan></text>
<text xml:space="preserve" fill="#000000" stroke="none"  text-align="left" font-size="9px" font-family='Monospace' font-weight="normal"  x="88.5859375" y="74.84" >      <tspan x="88.5859375" y="74.84"  style="fill:#000000">and</tspan>      <tspan x="110.189453125" y="74.84"  style="fill:#000000;stroke:#000000;stroke-width:0.75">visible part,</tspan>      <tspan x="185.8017578125" y="74.84"  style="fill:#000000">from</tspan>      <tspan x="212.80615234375" y="74.84"  style="fill:#000000;stroke:#000000;stroke-width:0.75">anywhere.</tspan></text>
<rect fill="none" stroke="#000000" stroke-width="2" height="121.5" width="110" x="5" y="120" />
<text xml:space="preserve" fill="#000000" stroke="none"  text-align="center" font-size="9px" font-family='arial' font-weight="normal" font-style="italic"  text-anchor="middle" x="60.0" y="136.875" >Our_Unit</text>
<rect fill="#80ffe6" stroke="#000000" stroke-width="2" height="13.5" width="110" x="5" y="147.0" />
<text xml:space="preserve" fill="#000000" stroke="none"  text-align="left" font-size="9px" font-family='Arial' font-weight="normal"  text-anchor="middle" x="60.0" y="157.26" >Visible Part</text>
<polygon fill="#000000" stroke="#000000" stroke-width="1" transform="rotate(45, 60.0, 162.0)" points="60.0,162.0 64.05,170.1 68.1,166.05 "/>
<line fill="none" stroke="#000000" stroke-width="2" x1="60.0" y1="163.25" x2="60.0" y2="188.25" />
<rect fill="#80ffe6" stroke="#000000" stroke-width="2" height="13.5" width="110" x="5" y="187.5" />
<text xml:space="preserve" fill="#000000" stroke="none"  text-align="left" font-size="9px" font-family='Arial' font-weight="normal"  text-anchor="middle" x="60.0" y="197.76" >Private Part</text>
<polygon fill="#000000" stroke="#000000" stroke-width="1" transform="rotate(45, 60.0, 202.5)" points="60.0,202.5 64.05,210.6 68.1,206.55 "/>
<line fill="none" stroke="#000000" stroke-width="2" x1="60.0" y1="203.75" x2="60.0" y2="228.75" />
<rect fill="none" stroke="#000000" stroke-width="2" height="13.5" width="110" x="5" y="228.0" />
<text xml:space="preserve" fill="#000000" stroke="none"  text-align="left" font-size="9px" font-family='Arial' font-weight="normal"  text-anchor="middle" x="60.0" y="238.26" >Body</text>
<line fill="none" stroke="#80ffe6" stroke-width="2" x1="205.0" y1="153.75" x2="235" y2="153.75" />
<polygon fill="#80ffe6" stroke="#80ffe6" stroke-width="1" transform="rotate(-45, 117.5, 194.25)" points="117.5,194.25 121.55,202.35 125.6,198.3 "/>
<line fill="none" stroke="#80ffe6" stroke-width="2" x1="118.75" y1="194.25" x2="235" y2="194.25" />
<line fill="none" stroke="#80ffe6" stroke-width="2" x1="205.0" y1="234.75" x2="235" y2="234.75" />
<line fill="none" stroke="#80ffe6" stroke-width="2" x1="205.0" y1="152.75" x2="205.0" y2="235.75" />
<rect fill="#80ffe6" stroke="#000000" stroke-width="2" height="121.5" width="110" x="235" y="120" />
<text xml:space="preserve" fill="#000000" stroke="none"  text-align="center" font-size="9px" font-family='arial' font-weight="normal" font-style="italic"  text-anchor="middle" x="290.0" y="136.875" >Our_Unit.Private_Child</text>
<rect fill="none" stroke="#000000" stroke-width="2" height="13.5" width="110" x="235" y="147.0" />
<text xml:space="preserve" fill="#000000" stroke="none"  text-align="left" font-size="9px" font-family='Arial' font-weight="normal"  text-anchor="middle" x="290.0" y="157.26" >Visible Part</text>
<polygon fill="#000000" stroke="#000000" stroke-width="1" transform="rotate(45, 290.0, 162.0)" points="290.0,162.0 294.05,170.1 298.1,166.05 "/>
<line fill="none" stroke="#000000" stroke-width="2" x1="290.0" y1="163.25" x2="290.0" y2="188.25" />
<rect fill="none" stroke="#000000" stroke-width="2" height="13.5" width="110" x="235" y="187.5" />
<text xml:space="preserve" fill="#000000" stroke="none"  text-align="left" font-size="9px" font-family='Arial' font-weight="normal"  text-anchor="middle" x="290.0" y="197.76" >Private Part</text>
<polygon fill="#000000" stroke="#000000" stroke-width="1" transform="rotate(45, 290.0, 202.5)" points="290.0,202.5 294.05,210.6 298.1,206.55 "/>
<line fill="none" stroke="#000000" stroke-width="2" x1="290.0" y1="203.75" x2="290.0" y2="228.75" />
<rect fill="none" stroke="#000000" stroke-width="2" height="13.5" width="110" x="235" y="228.0" />
<text xml:space="preserve" fill="#000000" stroke="none"  text-align="left" font-size="9px" font-family='Arial' font-weight="normal"  text-anchor="middle" x="290.0" y="238.26" >Body</text>
</svg>
