<?xml version="1.0" ?>
<svg xmlns="http://www.w3.org/2000/svg" xmlns:ev="http://www.w3.org/2001/xml-events" xmlns:xlink="http://www.w3.org/1999/xlink" baseProfile="full" version="1.1" height="400" width="155" >
<line fill="none" stroke="#000000" stroke-width="1" x1="150" y1="9.5" x2="150" y2="394.5" />
<line fill="none" stroke="#000000" stroke-width="1" x1="150" y1="10" x2="135" y2="10" />
<line fill="none" stroke="#000000" stroke-width="1" x1="150" y1="13" x2="145" y2="13" />
<line fill="none" stroke="#000000" stroke-width="1" x1="150" y1="16" x2="145" y2="16" />
<line fill="none" stroke="#000000" stroke-width="1" x1="150" y1="19" x2="145" y2="19" />
<line fill="none" stroke="#000000" stroke-width="1" x1="150" y1="22" x2="145" y2="22" />
<line fill="none" stroke="#000000" stroke-width="1" x1="150" y1="25" x2="145" y2="25" />
<line fill="none" stroke="#000000" stroke-width="1" x1="150" y1="28" x2="145" y2="28" />
<line fill="none" stroke="#000000" stroke-width="1" x1="150" y1="31" x2="145" y2="31" />
<line fill="none" stroke="#000000" stroke-width="1" x1="150" y1="34" x2="140" y2="34" />
<line fill="none" stroke="#000000" stroke-width="1" x1="150" y1="37" x2="145" y2="37" />
<line fill="none" stroke="#000000" stroke-width="1" x1="150" y1="40" x2="145" y2="40" />
<line fill="none" stroke="#000000" stroke-width="1" x1="150" y1="43" x2="145" y2="43" />
<line fill="none" stroke="#000000" stroke-width="1" x1="150" y1="46" x2="145" y2="46" />
<line fill="none" stroke="#000000" stroke-width="1" x1="150" y1="49" x2="145" y2="49" />
<line fill="none" stroke="#000000" stroke-width="1" x1="150" y1="52" x2="145" y2="52" />
<line fill="none" stroke="#000000" stroke-width="1" x1="150" y1="55" x2="145" y2="55" />
<line fill="none" stroke="#000000" stroke-width="1" x1="150" y1="58" x2="140" y2="58" />
<line fill="none" stroke="#000000" stroke-width="1" x1="150" y1="61" x2="145" y2="61" />
<line fill="none" stroke="#000000" stroke-width="1" x1="150" y1="64" x2="145" y2="64" />
<line fill="none" stroke="#000000" stroke-width="1" x1="150" y1="67" x2="145" y2="67" />
<line fill="none" stroke="#000000" stroke-width="1" x1="150" y1="70" x2="145" y2="70" />
<line fill="none" stroke="#000000" stroke-width="1" x1="150" y1="73" x2="145" y2="73" />
<line fill="none" stroke="#000000" stroke-width="1" x1="150" y1="76" x2="145" y2="76" />
<line fill="none" stroke="#000000" stroke-width="1" x1="150" y1="79" x2="145" y2="79" />
<line fill="none" stroke="#000000" stroke-width="1" x1="150" y1="82" x2="140" y2="82" />
<line fill="none" stroke="#000000" stroke-width="1" x1="150" y1="85" x2="145" y2="85" />
<line fill="none" stroke="#000000" stroke-width="1" x1="150" y1="88" x2="145" y2="88" />
<line fill="none" stroke="#000000" stroke-width="1" x1="150" y1="91" x2="145" y2="91" />
<line fill="none" stroke="#000000" stroke-width="1" x1="150" y1="94" x2="145" y2="94" />
<line fill="none" stroke="#000000" stroke-width="1" x1="150" y1="97" x2="145" y2="97" />
<line fill="none" stroke="#000000" stroke-width="1" x1="150" y1="100" x2="145" y2="100" />
<line fill="none" stroke="#000000" stroke-width="1" x1="150" y1="103" x2="145" y2="103" />
<line fill="none" stroke="#000000" stroke-width="1" x1="150" y1="106" x2="135" y2="106" />
<line fill="none" stroke="#000000" stroke-width="1" x1="150" y1="109" x2="145" y2="109" />
<line fill="none" stroke="#000000" stroke-width="1" x1="150" y1="112" x2="145" y2="112" />
<line fill="none" stroke="#000000" stroke-width="1" x1="150" y1="115" x2="145" y2="115" />
<line fill="none" stroke="#000000" stroke-width="1" x1="150" y1="118" x2="145" y2="118" />
<line fill="none" stroke="#000000" stroke-width="1" x1="150" y1="121" x2="145" y2="121" />
<line fill="none" stroke="#000000" stroke-width="1" x1="150" y1="124" x2="145" y2="124" />
<line fill="none" stroke="#000000" stroke-width="1" x1="150" y1="127" x2="145" y2="127" />
<line fill="none" stroke="#000000" stroke-width="1" x1="150" y1="130" x2="140" y2="130" />
<line fill="none" stroke="#000000" stroke-width="1" x1="150" y1="133" x2="145" y2="133" />
<line fill="none" stroke="#000000" stroke-width="1" x1="150" y1="136" x2="145" y2="136" />
<line fill="none" stroke="#000000" stroke-width="1" x1="150" y1="139" x2="145" y2="139" />
<line fill="none" stroke="#000000" stroke-width="1" x1="150" y1="142" x2="145" y2="142" />
<line fill="none" stroke="#000000" stroke-width="1" x1="150" y1="145" x2="145" y2="145" />
<line fill="none" stroke="#000000" stroke-width="1" x1="150" y1="148" x2="145" y2="148" />
<line fill="none" stroke="#000000" stroke-width="1" x1="150" y1="151" x2="145" y2="151" />
<line fill="none" stroke="#000000" stroke-width="1" x1="150" y1="154" x2="140" y2="154" />
<line fill="none" stroke="#000000" stroke-width="1" x1="150" y1="157" x2="145" y2="157" />
<line fill="none" stroke="#000000" stroke-width="1" x1="150" y1="160" x2="145" y2="160" />
<line fill="none" stroke="#000000" stroke-width="1" x1="150" y1="163" x2="145" y2="163" />
<line fill="none" stroke="#000000" stroke-width="1" x1="150" y1="166" x2="145" y2="166" />
<line fill="none" stroke="#000000" stroke-width="1" x1="150" y1="169" x2="145" y2="169" />
<line fill="none" stroke="#000000" stroke-width="1" x1="150" y1="172" x2="145" y2="172" />
<line fill="none" stroke="#000000" stroke-width="1" x1="150" y1="175" x2="145" y2="175" />
<line fill="none" stroke="#000000" stroke-width="1" x1="150" y1="178" x2="140" y2="178" />
<line fill="none" stroke="#000000" stroke-width="1" x1="150" y1="181" x2="145" y2="181" />
<line fill="none" stroke="#000000" stroke-width="1" x1="150" y1="184" x2="145" y2="184" />
<line fill="none" stroke="#000000" stroke-width="1" x1="150" y1="187" x2="145" y2="187" />
<line fill="none" stroke="#000000" stroke-width="1" x1="150" y1="190" x2="145" y2="190" />
<line fill="none" stroke="#000000" stroke-width="1" x1="150" y1="193" x2="145" y2="193" />
<line fill="none" stroke="#000000" stroke-width="1" x1="150" y1="196" x2="145" y2="196" />
<line fill="none" stroke="#000000" stroke-width="1" x1="150" y1="199" x2="145" y2="199" />
<line fill="none" stroke="#000000" stroke-width="1" x1="150" y1="202" x2="135" y2="202" />
<line fill="none" stroke="#000000" stroke-width="1" x1="150" y1="205" x2="145" y2="205" />
<line fill="none" stroke="#000000" stroke-width="1" x1="150" y1="208" x2="145" y2="208" />
<line fill="none" stroke="#000000" stroke-width="1" x1="150" y1="211" x2="145" y2="211" />
<line fill="none" stroke="#000000" stroke-width="1" x1="150" y1="214" x2="145" y2="214" />
<line fill="none" stroke="#000000" stroke-width="1" x1="150" y1="217" x2="145" y2="217" />
<line fill="none" stroke="#000000" stroke-width="1" x1="150" y1="220" x2="145" y2="220" />
<line fill="none" stroke="#000000" stroke-width="1" x1="150" y1="223" x2="145" y2="223" />
<line fill="none" stroke="#000000" stroke-width="1" x1="150" y1="226" x2="140" y2="226" />
<line fill="none" stroke="#000000" stroke-width="1" x1="150" y1="229" x2="145" y2="229" />
<line fill="none" stroke="#000000" stroke-width="1" x1="150" y1="232" x2="145" y2="232" />
<line fill="none" stroke="#000000" stroke-width="1" x1="150" y1="235" x2="145" y2="235" />
<line fill="none" stroke="#000000" stroke-width="1" x1="150" y1="238" x2="145" y2="238" />
<line fill="none" stroke="#000000" stroke-width="1" x1="150" y1="241" x2="145" y2="241" />
<line fill="none" stroke="#000000" stroke-width="1" x1="150" y1="244" x2="145" y2="244" />
<line fill="none" stroke="#000000" stroke-width="1" x1="150" y1="247" x2="145" y2="247" />
<line fill="none" stroke="#000000" stroke-width="1" x1="150" y1="250" x2="140" y2="250" />
<line fill="none" stroke="#000000" stroke-width="1" x1="150" y1="253" x2="145" y2="253" />
<line fill="none" stroke="#000000" stroke-width="1" x1="150" y1="256" x2="145" y2="256" />
<line fill="none" stroke="#000000" stroke-width="1" x1="150" y1="259" x2="145" y2="259" />
<line fill="none" stroke="#000000" stroke-width="1" x1="150" y1="262" x2="145" y2="262" />
<line fill="none" stroke="#000000" stroke-width="1" x1="150" y1="265" x2="145" y2="265" />
<line fill="none" stroke="#000000" stroke-width="1" x1="150" y1="268" x2="145" y2="268" />
<line fill="none" stroke="#000000" stroke-width="1" x1="150" y1="271" x2="145" y2="271" />
<line fill="none" stroke="#000000" stroke-width="1" x1="150" y1="274" x2="140" y2="274" />
<line fill="none" stroke="#000000" stroke-width="1" x1="150" y1="277" x2="145" y2="277" />
<line fill="none" stroke="#000000" stroke-width="1" x1="150" y1="280" x2="145" y2="280" />
<line fill="none" stroke="#000000" stroke-width="1" x1="150" y1="283" x2="145" y2="283" />
<line fill="none" stroke="#000000" stroke-width="1" x1="150" y1="286" x2="145" y2="286" />
<line fill="none" stroke="#000000" stroke-width="1" x1="150" y1="289" x2="145" y2="289" />
<line fill="none" stroke="#000000" stroke-width="1" x1="150" y1="292" x2="145" y2="292" />
<line fill="none" stroke="#000000" stroke-width="1" x1="150" y1="295" x2="145" y2="295" />
<line fill="none" stroke="#000000" stroke-width="1" x1="150" y1="298" x2="135" y2="298" />
<line fill="none" stroke="#000000" stroke-width="1" x1="150" y1="301" x2="145" y2="301" />
<line fill="none" stroke="#000000" stroke-width="1" x1="150" y1="304" x2="145" y2="304" />
<line fill="none" stroke="#000000" stroke-width="1" x1="150" y1="307" x2="145" y2="307" />
<line fill="none" stroke="#000000" stroke-width="1" x1="150" y1="310" x2="145" y2="310" />
<line fill="none" stroke="#000000" stroke-width="1" x1="150" y1="313" x2="145" y2="313" />
<line fill="none" stroke="#000000" stroke-width="1" x1="150" y1="316" x2="145" y2="316" />
<line fill="none" stroke="#000000" stroke-width="1" x1="150" y1="319" x2="145" y2="319" />
<line fill="none" stroke="#000000" stroke-width="1" x1="150" y1="322" x2="140" y2="322" />
<line fill="none" stroke="#000000" stroke-width="1" x1="150" y1="325" x2="145" y2="325" />
<line fill="none" stroke="#000000" stroke-width="1" x1="150" y1="328" x2="145" y2="328" />
<line fill="none" stroke="#000000" stroke-width="1" x1="150" y1="331" x2="145" y2="331" />
<line fill="none" stroke="#000000" stroke-width="1" x1="150" y1="334" x2="145" y2="334" />
<line fill="none" stroke="#000000" stroke-width="1" x1="150" y1="337" x2="145" y2="337" />
<line fill="none" stroke="#000000" stroke-width="1" x1="150" y1="340" x2="145" y2="340" />
<line fill="none" stroke="#000000" stroke-width="1" x1="150" y1="343" x2="145" y2="343" />
<line fill="none" stroke="#000000" stroke-width="1" x1="150" y1="346" x2="140" y2="346" />
<line fill="none" stroke="#000000" stroke-width="1" x1="150" y1="349" x2="145" y2="349" />
<line fill="none" stroke="#000000" stroke-width="1" x1="150" y1="352" x2="145" y2="352" />
<line fill="none" stroke="#000000" stroke-width="1" x1="150" y1="355" x2="145" y2="355" />
<line fill="none" stroke="#000000" stroke-width="1" x1="150" y1="358" x2="145" y2="358" />
<line fill="none" stroke="#000000" stroke-width="1" x1="150" y1="361" x2="145" y2="361" />
<line fill="none" stroke="#000000" stroke-width="1" x1="150" y1="364" x2="145" y2="364" />
<line fill="none" stroke="#000000" stroke-width="1" x1="150" y1="367" x2="145" y2="367" />
<line fill="none" stroke="#000000" stroke-width="1" x1="150" y1="370" x2="140" y2="370" />
<line fill="none" stroke="#000000" stroke-width="1" x1="150" y1="373" x2="145" y2="373" />
<line fill="none" stroke="#000000" stroke-width="1" x1="150" y1="376" x2="145" y2="376" />
<line fill="none" stroke="#000000" stroke-width="1" x1="150" y1="379" x2="145" y2="379" />
<line fill="none" stroke="#000000" stroke-width="1" x1="150" y1="382" x2="145" y2="382" />
<line fill="none" stroke="#000000" stroke-width="1" x1="150" y1="385" x2="145" y2="385" />
<line fill="none" stroke="#000000" stroke-width="1" x1="150" y1="388" x2="145" y2="388" />
<line fill="none" stroke="#000000" stroke-width="1" x1="150" y1="391" x2="145" y2="391" />
<line fill="none" stroke="#000000" stroke-width="1" x1="150" y1="394" x2="135" y2="394" />
<rect fill="#ddddff" stroke="#8888aa" stroke-width="1" height="96" width="30" x="95" y="10" />
<text xml:space="preserve" fill="#000000" stroke="none"  text-align="center" font-size="14px" font-family='arial' font-weight="normal"  text-anchor="middle" x="110.0" y="58.0" >A</text>
<rect fill="#ddddff" stroke="#8888aa" stroke-width="1" height="3" width="30" x="95" y="106" />
<text xml:space="preserve" fill="#000000" stroke="none"  text-align="center" font-size="2px" font-family='arial' font-weight="normal"  text-anchor="middle" x="110.0" y="108.25" >B</text>
<rect fill="#ddddff" stroke="#8888aa" stroke-width="1" height="3" width="30" x="95" y="109" />
<text xml:space="preserve" fill="#000000" stroke="none"  text-align="center" font-size="2px" font-family='arial' font-weight="normal"  text-anchor="middle" x="110.0" y="111.25" >C</text>
<rect fill="#ddddff" stroke="#8888aa" stroke-width="1" height="6" width="30" x="95" y="112" />
<text xml:space="preserve" fill="#000000" stroke="none"  text-align="center" font-size="4px" font-family='arial' font-weight="normal"  text-anchor="middle" x="110.0" y="116.0" >D</text>
<rect fill="#ddddff" stroke="#8888aa" stroke-width="1" height="96" width="30" x="50.0" y="10" />
<text xml:space="preserve" fill="#000000" stroke="none"  text-align="center" font-size="14px" font-family='arial' font-weight="normal"  text-anchor="middle" x="65.0" y="58.0" >A</text>
<rect fill="#ddddff" stroke="#8888aa" stroke-width="1" height="24" width="30" x="50.0" y="106" />
<text xml:space="preserve" fill="#000000" stroke="none"  text-align="center" font-size="14px" font-family='arial' font-weight="normal"  text-anchor="middle" x="65.0" y="122.0" >B</text>
<rect fill="#ddddff" stroke="#8888aa" stroke-width="1" height="24" width="30" x="50.0" y="130" />
<text xml:space="preserve" fill="#000000" stroke="none"  text-align="center" font-size="14px" font-family='arial' font-weight="normal"  text-anchor="middle" x="65.0" y="146.0" >C</text>
<rect fill="#ddddff" stroke="#8888aa" stroke-width="1" height="48" width="30" x="50.0" y="154" />
<text xml:space="preserve" fill="#000000" stroke="none"  text-align="center" font-size="14px" font-family='arial' font-weight="normal"  text-anchor="middle" x="65.0" y="180.0" >D</text>
<rect fill="#ddddff" stroke="#8888aa" stroke-width="1" height="96" width="30" x="5.0" y="10" />
<text xml:space="preserve" fill="#000000" stroke="none"  text-align="center" font-size="14px" font-family='arial' font-weight="normal"  text-anchor="middle" x="20.0" y="58.0" >A</text>
<rect fill="#ddddff" stroke="#8888aa" stroke-width="1" height="96" width="30" x="5.0" y="106" />
<text xml:space="preserve" fill="#000000" stroke="none"  text-align="center" font-size="14px" font-family='arial' font-weight="normal"  text-anchor="middle" x="20.0" y="154.0" >B</text>
<rect fill="#ddddff" stroke="#8888aa" stroke-width="1" height="96" width="30" x="5.0" y="202" />
<text xml:space="preserve" fill="#000000" stroke="none"  text-align="center" font-size="14px" font-family='arial' font-weight="normal"  text-anchor="middle" x="20.0" y="250.0" >C</text>
<rect fill="#ddddff" stroke="#8888aa" stroke-width="1" height="96" width="30" x="5.0" y="298" />
<text xml:space="preserve" fill="#000000" stroke="none"  text-align="center" font-size="14px" font-family='arial' font-weight="normal"  text-anchor="middle" x="20.0" y="346.0" >D</text>
</svg>
