<?xml version="1.0" ?>
<svg xmlns="http://www.w3.org/2000/svg" xmlns:ev="http://www.w3.org/2001/xml-events" xmlns:xlink="http://www.w3.org/1999/xlink" baseProfile="full" version="1.1" height="130" width="160" >
<rect fill="#ffaaaa" stroke="none" stroke-width="1" rx="12.0" ry="12.0" height="120" width="60" x="5" y="5" />
<text xml:space="preserve" fill="#000000" stroke="none" stroke-width="1" text-align="left" font-size="12px" font-family='Arial' font-weight="normal"  text-anchor="middle" x="35.0" y="25">Stack</text>
<rect fill="#bf7f7f" stroke="#ffffff" stroke-width="1" rx="3.0" ry="3.0" height="15" width="40" x="15" y="87.0" />
<rect fill="#bf7f7f" stroke="#ffffff" stroke-width="1" rx="3.0" ry="3.0" height="15" width="40" x="15" y="69.0" />
<rect fill="#aaaaff" stroke="none" stroke-width="1" rx="12.0" ry="12.0" height="120" width="60" x="95.0" y="5" />
<text xml:space="preserve" fill="#000000" stroke="none" stroke-width="1" text-align="left" font-size="12px" font-family='Arial' font-weight="normal"  text-anchor="middle" x="125.0" y="25">Heap</text>
<rect fill="#7f7fbf" stroke="#ffffff" stroke-width="1" rx="3.0" ry="3.0" height="15" width="40" x="105.0" y="102.0" />
<rect fill="#7f7fbf" stroke="#ffffff" stroke-width="1" rx="3.0" ry="3.0" height="15" width="40" x="105.0" y="84.0" />
<rect fill="#7f7fbf" stroke="#ffffff" stroke-width="1" rx="3.0" ry="3.0" height="15" width="40" x="105.0" y="66.0" />
<rect fill="#7f7fbf" stroke="#ffffff" stroke-width="1" rx="3.0" ry="3.0" height="15" width="40" x="105.0" y="48.0" />
<path fill="none" stroke="#000000" stroke-width="1" d="M 55.5 94.5 L 55.5 94.5 L 86.25 94.5 L 86.25 109.5 L 102.0 109.5"/><polygon fill="#000000" stroke="none" stroke-width="1" transform="rotate(135, 104.5, 109.5)" points="104.5,109.5 107.5,115.5 110.5,112.5 "/>
<text xml:space="preserve" fill="#ffffff" stroke="none" stroke-width="1" text-align="left" font-size="10px" font-family='Arial' font-weight="normal"  text-anchor="middle" x="35.0" y="97.5">J</text>
<text xml:space="preserve" fill="#ffffff" stroke="none" stroke-width="1" text-align="left" font-size="10px" font-family='Arial' font-weight="normal"  text-anchor="middle" x="125.0" y="112.5">J</text>
<path fill="none" stroke="#000000" stroke-width="1" d="M 55.5 76.5 L 55.5 76.5 L 73.75 76.5 L 73.75 55.5 L 102.0 55.5"/><polygon fill="#000000" stroke="none" stroke-width="1" transform="rotate(135, 104.5, 55.5)" points="104.5,55.5 107.5,61.5 110.5,58.5 "/>
<text xml:space="preserve" fill="#ffffff" stroke="none" stroke-width="1" text-align="left" font-size="10px" font-family='Arial' font-weight="normal"  text-anchor="middle" x="35.0" y="79.5">I</text>
<text xml:space="preserve" fill="#ffffff" stroke="none" stroke-width="1" text-align="left" font-size="10px" font-family='Arial' font-weight="normal"  text-anchor="middle" x="125.0" y="58.5">I</text>
</svg>
