<?xml version="1.0" ?>
<svg xmlns="http://www.w3.org/2000/svg" xmlns:ev="http://www.w3.org/2001/xml-events" xmlns:xlink="http://www.w3.org/1999/xlink" baseProfile="full" version="1.1" height="310" width="400" >
<path fill="none" stroke="#5fbcd3" stroke-width="2" d="M 65.636551984287 70.0 A 200 200 0 0 0 200 190"/><rect fill="#5fbcd3" stroke="#000000" stroke-width="1" rx="10.0" ry="10.0" height="50" width="100" x="15.636551984286996" y="20.0" />
<text xml:space="preserve" fill="#000000" stroke="none" stroke-width="1" text-align="left" font-size="14px" font-family='Arial' font-weight="normal"  text-anchor="middle" x="65.636551984287" y="48.5">Subprogram</text>
<path fill="none" stroke="#3f9cb3" stroke-width="2" d="M 335.0 70.0 A 200 200 0 0 0 200 190"/><rect fill="#3f9cb3" stroke="#000000" stroke-width="1" rx="10.0" ry="10.0" height="50" width="100" x="285.0" y="20.0" />
<text xml:space="preserve" fill="#000000" stroke="none" stroke-width="1" text-align="left" font-size="14px" font-family='Arial' font-weight="normal"  text-anchor="middle" x="335.0" y="48.5">Subprogram</text>
<path fill="none" stroke="#7fdcf3" stroke-width="2" d="M 65.636551984287 252.0 A 200 200 0 0 0 200 130"/><rect fill="#7fdcf3" stroke="#000000" stroke-width="1" rx="10.0" ry="10.0" height="50" width="100" x="15.636551984286996" y="252.0" />
<text xml:space="preserve" fill="#000000" stroke="none" stroke-width="1" text-align="left" font-size="14px" font-family='Arial' font-weight="normal"  text-anchor="middle" x="65.636551984287" y="280.5">Subprogram</text>
<path fill="none" stroke="#5fadf3" stroke-width="2" d="M 335.0 252.0 A 200 200 0 0 0 200 130"/><rect fill="#5fadf3" stroke="#000000" stroke-width="1" rx="10.0" ry="10.0" height="50" width="100" x="285.0" y="252.0" />
<text xml:space="preserve" fill="#000000" stroke="none" stroke-width="1" text-align="left" font-size="14px" font-family='Arial' font-weight="normal"  text-anchor="middle" x="335.0" y="280.5">Subprogram</text>
<path fill="#dd5555" stroke="#000000" stroke-width="2" d="M 260.0 155.2 A 4 4 0 0 1 241.88306325798368 189.0A 4 4 0 0 1 234.6 200.48024663591886A 4 4 0 0 1 200.0 202.0A 4 4 0 0 1 176.8 186.85537550532246A 4 4 0 0 1 150.99924528839236 187.2A 4 4 0 0 1 144.2 168.0A 4 4 0 0 1 140.636551984287 138.6A 4 4 0 0 1 178.49999999999997 127.86616352559491A 4 4 0 0 1 202.0 120.0A 4 4 0 0 1 232.3 122.85180417165A 4 4 0 0 1 241.88306325798368 132.99999999999997A 4 4 0 0 1 260.0 155.2"/><text xml:space="preserve" fill="#000000" stroke="none" stroke-width="1" text-align="left" font-size="14px" font-family='Arial' font-weight="normal"  text-anchor="middle" x="200.3182759921435" y="152.6">Application</text>
<text xml:space="preserve" fill="#000000" stroke="none" stroke-width="1" text-align="left" font-size="14px" font-family='Arial' font-weight="normal"  text-anchor="middle" x="200.3182759921435" y="169.4">Global</text>
<text xml:space="preserve" fill="#000000" stroke="none" stroke-width="1" text-align="left" font-size="14px" font-family='Arial' font-weight="normal"  text-anchor="middle" x="200.3182759921435" y="186.20000000000002">Data</text>
</svg>
