<?xml version="1.0" ?>
<svg xmlns="http://www.w3.org/2000/svg" xmlns:ev="http://www.w3.org/2001/xml-events" xmlns:xlink="http://www.w3.org/1999/xlink" baseProfile="full" version="1.1" height="310" width="400" >
<path fill="none" stroke="#5fbcd3" stroke-width="2" d="M 65.636551984287 70.0 A 200 200 0 0 0 200 190"/><rect fill="#5fbcd3" stroke="#000000" stroke-width="1" rx="10.0" ry="10.0" height="50" width="100" x="15.636551984286996" y="20.0" />
<text xml:space="preserve" fill="#ffffff" stroke="none" stroke-width="1" text-align="left" font-size="14px" font-family='Arial' font-weight="normal"  text-anchor="middle" x="65.636551984287" y="48.5">Subprogram</text>
<path fill="none" stroke="#3f9cb3" stroke-width="2" d="M 332.00075471160767 70.0 A 200 200 0 0 0 200 190"/><rect fill="#3f9cb3" stroke="#000000" stroke-width="1" rx="10.0" ry="10.0" height="50" width="100" x="282.00075471160767" y="20.0" />
<text xml:space="preserve" fill="#ffffff" stroke="none" stroke-width="1" text-align="left" font-size="14px" font-family='Arial' font-weight="normal"  text-anchor="middle" x="332.00075471160767" y="48.5">Subprogram</text>
<path fill="none" stroke="#2f78e6" stroke-width="2" d="M 65.636551984287 256.0 A 200 200 0 0 0 200 130"/><rect fill="#2f78e6" stroke="#000000" stroke-width="1" rx="10.0" ry="10.0" height="50" width="100" x="15.636551984286996" y="256.0" />
<text xml:space="preserve" fill="#ffffff" stroke="none" stroke-width="1" text-align="left" font-size="14px" font-family='Arial' font-weight="normal"  text-anchor="middle" x="65.636551984287" y="284.5">Subprogram</text>
<path fill="none" stroke="#5fadf3" stroke-width="2" d="M 332.00075471160767 256.0 A 200 200 0 0 0 200 130"/><rect fill="#5fadf3" stroke="#000000" stroke-width="1" rx="10.0" ry="10.0" height="50" width="100" x="282.00075471160767" y="256.0" />
<text xml:space="preserve" fill="#ffffff" stroke="none" stroke-width="1" text-align="left" font-size="14px" font-family='Arial' font-weight="normal"  text-anchor="middle" x="332.00075471160767" y="284.5">Subprogram</text>
<path fill="#dd5555" stroke="#000000" stroke-width="2" d="M 252.2 160.0 A 4 4 0 0 1 241.88306325798368 185.4A 4 4 0 0 1 234.6 186.85537550532246A 4 4 0 0 1 208.0 206.0A 4 4 0 0 1 175.1 194.64101615137756A 4 4 0 0 1 140.636551984287 189.0A 4 4 0 0 1 147.0 160.0A 4 4 0 0 1 149.51886053066303 133.0A 4 4 0 0 1 168.29999999999995 125.35898384862247A 4 4 0 0 1 202.0 120.0A 4 4 0 0 1 234.6 131.62693304105358A 4 4 0 0 1 257.00075471160767 141.39999999999998A 4 4 0 0 1 252.2 160.0"/><text xml:space="preserve" fill="#ffffff" stroke="none" stroke-width="1" text-align="left" font-size="14px" font-family='Arial' font-weight="normal"  text-anchor="middle" x="198.81865334794733" y="154.6">Application</text>
<text xml:space="preserve" fill="#ffffff" stroke="none" stroke-width="1" text-align="left" font-size="14px" font-family='Arial' font-weight="normal"  text-anchor="middle" x="198.81865334794733" y="171.4">Global</text>
<text xml:space="preserve" fill="#ffffff" stroke="none" stroke-width="1" text-align="left" font-size="14px" font-family='Arial' font-weight="normal"  text-anchor="middle" x="198.81865334794733" y="188.20000000000002">Data</text>
</svg>
