<?xml version="1.0" ?>
<svg xmlns="http://www.w3.org/2000/svg" xmlns:ev="http://www.w3.org/2001/xml-events" xmlns:xlink="http://www.w3.org/1999/xlink" baseProfile="full" height="410" version="1.1" width="1000">
  <defs/>
  <rect fill="#FFFFFF" height="50" rx="10" ry="10" stroke="black" width="88" x="455" y="5"/>
<line x1 = "499.0" y1 = "55" x2 = "499.0" y2 = "65" stroke = "black" stroke-width = "2"/>
  <text alignment-baseline="middle" font-family="Arial" font-size="12px" text-anchor="middle" x="499.0" y="35.0">All Types</text>
  <rect fill="#00AA44" height="50" rx="10" ry="10" stroke="black" width="88" x="255" y="75"/>
<line x1 = "299.0" y1 = "75" x2 = "299.0" y2 = "65" stroke = "black" stroke-width = "2"/>
<line x1 = "299.0" y1 = "125" x2 = "299.0" y2 = "135" stroke = "black" stroke-width = "2"/>
  <text alignment-baseline="middle" font-family="Arial" font-size="12px" text-anchor="middle" x="299.0" y="105.0">Elementary</text>
  <rect fill="#00CCFF" height="50" rx="10" ry="10" stroke="black" width="88" x="705" y="75"/>
<line x1 = "749.0" y1 = "75" x2 = "749.0" y2 = "65" stroke = "black" stroke-width = "2"/>
<line x1 = "749.0" y1 = "125" x2 = "749.0" y2 = "135" stroke = "black" stroke-width = "2"/>
  <text alignment-baseline="middle" font-family="Arial" font-size="12px" text-anchor="middle" x="749.0" y="105.0">Composite</text>
  <rect fill="#00D455" height="50" rx="10" ry="10" stroke="black" width="88" x="155" y="145"/>
<line x1 = "199.0" y1 = "145" x2 = "199.0" y2 = "135" stroke = "black" stroke-width = "2"/>
<line x1 = "199.0" y1 = "195" x2 = "199.0" y2 = "205" stroke = "black" stroke-width = "2"/>
  <text alignment-baseline="middle" font-family="Arial" font-size="12px" text-anchor="middle" x="199.0" y="175.0">Scalar</text>
  <rect fill="#00D455" height="50" rx="10" ry="10" stroke="black" width="88" x="355" y="145"/>
<line x1 = "399.0" y1 = "145" x2 = "399.0" y2 = "135" stroke = "black" stroke-width = "2"/>
  <text alignment-baseline="middle" font-family="Arial" font-size="12px" text-anchor="middle" x="399.0" y="175.0">Access</text>
  <rect fill="#80E5FF" height="50" rx="10" ry="10" stroke="black" width="88" x="505" y="145"/>
<line x1 = "549.0" y1 = "145" x2 = "549.0" y2 = "135" stroke = "black" stroke-width = "2"/>
  <text alignment-baseline="middle" font-family="Arial" font-size="12px" text-anchor="middle" x="549.0" y="175.0">Array</text>
  <rect fill="#80E5FF" height="50" rx="10" ry="10" stroke="black" width="88" x="605" y="145"/>
<line x1 = "649.0" y1 = "145" x2 = "649.0" y2 = "135" stroke = "black" stroke-width = "2"/>
  <text alignment-baseline="middle" font-family="Arial" font-size="12px" text-anchor="middle" x="649.0" y="175.0">Record</text>
  <rect fill="#80E5FF" height="50" rx="10" ry="10" stroke="black" width="88" x="705" y="145"/>
<line x1 = "749.0" y1 = "145" x2 = "749.0" y2 = "135" stroke = "black" stroke-width = "2"/>
  <text alignment-baseline="middle" font-family="Arial" font-size="12px" text-anchor="middle" x="749.0" y="175.0">Interface</text>
  <rect fill="#80E5FF" height="50" rx="10" ry="10" stroke="black" width="88" x="805" y="145"/>
<line x1 = "849.0" y1 = "145" x2 = "849.0" y2 = "135" stroke = "black" stroke-width = "2"/>
  <text alignment-baseline="middle" font-family="Arial" font-size="12px" text-anchor="middle" x="849.0" y="175.0">Protected</text>
  <rect fill="#80E5FF" height="50" rx="10" ry="10" stroke="black" width="88" x="905" y="145"/>
<line x1 = "949.0" y1 = "145" x2 = "949.0" y2 = "135" stroke = "black" stroke-width = "2"/>
  <text alignment-baseline="middle" font-family="Arial" font-size="12px" text-anchor="middle" x="949.0" y="175.0">Task</text>
  <rect fill="#00FF66" height="50" rx="10" ry="10" stroke="black" width="88" x="55" y="215"/>
<line x1 = "99.0" y1 = "215" x2 = "99.0" y2 = "205" stroke = "black" stroke-width = "2"/>
<line x1 = "99.0" y1 = "265" x2 = "99.0" y2 = "275" stroke = "black" stroke-width = "2"/>
  <text alignment-baseline="middle" font-family="Arial" font-size="12px" text-anchor="middle" x="99.0" y="245.0">Discrete</text>
  <rect fill="#00FF66" height="50" rx="10" ry="10" stroke="black" width="88" x="255" y="215"/>
<line x1 = "299.0" y1 = "215" x2 = "299.0" y2 = "205" stroke = "black" stroke-width = "2"/>
<line x1 = "299.0" y1 = "265" x2 = "299.0" y2 = "275" stroke = "black" stroke-width = "2"/>
  <text alignment-baseline="middle" font-family="Arial" font-size="12px" text-anchor="middle" x="299.0" y="245.0">Real</text>
  <rect fill="#55FF99" height="50" rx="10" ry="10" stroke="black" width="88" x="5" y="285"/>
<line x1 = "49.0" y1 = "285" x2 = "49.0" y2 = "275" stroke = "black" stroke-width = "2"/>
  <text alignment-baseline="middle" font-family="Arial" font-size="12px" text-anchor="middle" x="49.0" y="315.0">Enumeration</text>
  <rect fill="#55FF99" height="50" rx="10" ry="10" stroke="black" width="88" x="105" y="285"/>
<line x1 = "149.0" y1 = "285" x2 = "149.0" y2 = "275" stroke = "black" stroke-width = "2"/>
<line x1 = "149.0" y1 = "335" x2 = "149.0" y2 = "345" stroke = "black" stroke-width = "2"/>
  <text alignment-baseline="middle" font-family="Arial" font-size="12px" text-anchor="middle" x="149.0" y="315.0">Integer</text>
  <rect fill="#55FF99" height="50" rx="10" ry="10" stroke="black" width="88" x="205" y="285"/>
<line x1 = "249.0" y1 = "285" x2 = "249.0" y2 = "275" stroke = "black" stroke-width = "2"/>
  <text alignment-baseline="middle" font-family="Arial" font-size="12px" text-anchor="middle" x="249.0" y="315.0">Floating Point</text>
  <rect fill="#55FF99" height="50" rx="10" ry="10" stroke="black" width="88" x="305" y="285"/>
<line x1 = "349.0" y1 = "285" x2 = "349.0" y2 = "275" stroke = "black" stroke-width = "2"/>
<line x1 = "349.0" y1 = "335" x2 = "349.0" y2 = "345" stroke = "black" stroke-width = "2"/>
  <text alignment-baseline="middle" font-family="Arial" font-size="12px" text-anchor="middle" x="349.0" y="315.0">Fixed Point</text>
  <rect fill="#AAFFCC" height="50" rx="10" ry="10" stroke="black" width="88" x="55" y="355"/>
<line x1 = "99.0" y1 = "355" x2 = "99.0" y2 = "345" stroke = "black" stroke-width = "2"/>
  <text alignment-baseline="middle" font-family="Arial" font-size="12px" text-anchor="middle" x="99.0" y="385.0">Signed</text>
  <rect fill="#AAFFCC" height="50" rx="10" ry="10" stroke="black" width="88" x="155" y="355"/>
<line x1 = "199.0" y1 = "355" x2 = "199.0" y2 = "345" stroke = "black" stroke-width = "2"/>
  <text alignment-baseline="middle" font-family="Arial" font-size="12px" text-anchor="middle" x="199.0" y="385.0">Modular</text>
  <rect fill="#AAFFCC" height="50" rx="10" ry="10" stroke="black" width="88" x="255" y="355"/>
<line x1 = "299.0" y1 = "355" x2 = "299.0" y2 = "345" stroke = "black" stroke-width = "2"/>
  <text alignment-baseline="middle" font-family="Arial" font-size="12px" text-anchor="middle" x="299.0" y="385.0">Ordinary</text>
  <rect fill="#AAFFCC" height="50" rx="10" ry="10" stroke="black" width="88" x="355" y="355"/>
<line x1 = "399.0" y1 = "355" x2 = "399.0" y2 = "345" stroke = "black" stroke-width = "2"/>
  <text alignment-baseline="middle" font-family="Arial" font-size="12px" text-anchor="middle" x="399.0" y="385.0">Decimal</text>
<line x1 = "298.0" y1 = "65" x2 = "750.0" y2 = "65" stroke = "black" stroke-width = "2"/>
<line x1 = "198.0" y1 = "135" x2 = "400.0" y2 = "135" stroke = "black" stroke-width = "2"/>
<line x1 = "548.0" y1 = "135" x2 = "950.0" y2 = "135" stroke = "black" stroke-width = "2"/>
<line x1 = "98.0" y1 = "205" x2 = "300.0" y2 = "205" stroke = "black" stroke-width = "2"/>
<line x1 = "48.0" y1 = "275" x2 = "150.0" y2 = "275" stroke = "black" stroke-width = "2"/>
<line x1 = "248.0" y1 = "275" x2 = "350.0" y2 = "275" stroke = "black" stroke-width = "2"/>
<line x1 = "98.0" y1 = "345" x2 = "200.0" y2 = "345" stroke = "black" stroke-width = "2"/>
<line x1 = "298.0" y1 = "345" x2 = "400.0" y2 = "345" stroke = "black" stroke-width = "2"/>
</svg>
