<?xml version="1.0" ?>
<svg xmlns="http://www.w3.org/2000/svg" xmlns:ev="http://www.w3.org/2001/xml-events" xmlns:xlink="http://www.w3.org/1999/xlink" baseProfile="full" height="340" version="1.1" width="1045">
  <defs/>
  <rect fill="#FFFFFF" height="50" rx="10" ry="10" stroke="black" width="80" x="435" y="5"/>
<line x1 = "475.0" y1 = "55" x2 = "475.0" y2 = "65" stroke = "black" stroke-width = "2"/>
  <text alignment-baseline="middle" font-family="Arial" font-size="12px" text-anchor="middle" x="475.0" y="35.0">All Types</text>
  <rect fill="#71C837" height="50" rx="10" ry="10" stroke="black" width="80" x="263" y="75"/>
<line x1 = "303.0" y1 = "75" x2 = "303.0" y2 = "65" stroke = "black" stroke-width = "2"/>
<line x1 = "303.0" y1 = "125" x2 = "303.0" y2 = "135" stroke = "black" stroke-width = "2"/>
  <text alignment-baseline="middle" font-family="Arial" font-size="12px" text-anchor="middle" x="303.0" y="105.0">Scalar</text>
  <rect fill="#FF8080" height="50" rx="10" ry="10" stroke="black" width="80" x="521" y="75"/>
<line x1 = "561.0" y1 = "75" x2 = "561.0" y2 = "65" stroke = "black" stroke-width = "2"/>
  <text alignment-baseline="middle" font-family="Arial" font-size="12px" text-anchor="middle" x="561.0" y="105.0">Access</text>
  <rect fill="#00AAD4" height="50" rx="10" ry="10" stroke="black" width="80" x="779" y="75"/>
<line x1 = "819.0" y1 = "75" x2 = "819.0" y2 = "65" stroke = "black" stroke-width = "2"/>
<line x1 = "819.0" y1 = "125" x2 = "819.0" y2 = "135" stroke = "black" stroke-width = "2"/>
  <text alignment-baseline="middle" font-family="Arial" font-size="12px" text-anchor="middle" x="819.0" y="105.0">Composite</text>
  <rect fill="#00D455" height="50" rx="10" ry="10" stroke="black" width="80" x="91" y="145"/>
<line x1 = "131.0" y1 = "145" x2 = "131.0" y2 = "135" stroke = "black" stroke-width = "2"/>
<line x1 = "131.0" y1 = "195" x2 = "131.0" y2 = "205" stroke = "black" stroke-width = "2"/>
  <text alignment-baseline="middle" font-family="Arial" font-size="12px" text-anchor="middle" x="131.0" y="175.0">Discrete</text>
  <rect fill="#00D455" height="50" rx="10" ry="10" stroke="black" width="80" x="435" y="145"/>
<line x1 = "475.0" y1 = "145" x2 = "475.0" y2 = "135" stroke = "black" stroke-width = "2"/>
<line x1 = "475.0" y1 = "195" x2 = "475.0" y2 = "205" stroke = "black" stroke-width = "2"/>
  <text alignment-baseline="middle" font-family="Arial" font-size="12px" text-anchor="middle" x="475.0" y="175.0">Real</text>
  <rect fill="#00CCFF" height="50" rx="10" ry="10" stroke="black" width="80" x="607" y="145"/>
<line x1 = "647.0" y1 = "145" x2 = "647.0" y2 = "135" stroke = "black" stroke-width = "2"/>
  <text alignment-baseline="middle" font-family="Arial" font-size="12px" text-anchor="middle" x="647.0" y="175.0">Array</text>
  <rect fill="#00CCFF" height="50" rx="10" ry="10" stroke="black" width="80" x="693" y="145"/>
<line x1 = "733.0" y1 = "145" x2 = "733.0" y2 = "135" stroke = "black" stroke-width = "2"/>
  <text alignment-baseline="middle" font-family="Arial" font-size="12px" text-anchor="middle" x="733.0" y="175.0">Record</text>
  <rect fill="#00CCFF" height="50" rx="10" ry="10" stroke="black" width="80" x="779" y="145"/>
<line x1 = "819.0" y1 = "145" x2 = "819.0" y2 = "135" stroke = "black" stroke-width = "2"/>
  <text alignment-baseline="middle" font-family="Arial" font-size="12px" text-anchor="middle" x="819.0" y="175.0">Interface</text>
  <rect fill="#00CCFF" height="50" rx="10" ry="10" stroke="black" width="80" x="865" y="145"/>
<line x1 = "905.0" y1 = "145" x2 = "905.0" y2 = "135" stroke = "black" stroke-width = "2"/>
  <text alignment-baseline="middle" font-family="Arial" font-size="12px" text-anchor="middle" x="905.0" y="175.0">Protected</text>
  <rect fill="#00CCFF" height="50" rx="10" ry="10" stroke="black" width="80" x="951" y="145"/>
<line x1 = "991.0" y1 = "145" x2 = "991.0" y2 = "135" stroke = "black" stroke-width = "2"/>
  <text alignment-baseline="middle" font-family="Arial" font-size="12px" text-anchor="middle" x="991.0" y="175.0">Task</text>
  <rect fill="#87DE87" height="50" rx="10" ry="10" stroke="black" width="80" x="5" y="215"/>
<line x1 = "45.0" y1 = "215" x2 = "45.0" y2 = "205" stroke = "black" stroke-width = "2"/>
  <text alignment-baseline="middle" font-family="Arial" font-size="12px" text-anchor="middle" x="45.0" y="245.0">Enumeration</text>
  <rect fill="#87DE87" height="50" rx="10" ry="10" stroke="black" width="80" x="177" y="215"/>
<line x1 = "217.0" y1 = "215" x2 = "217.0" y2 = "205" stroke = "black" stroke-width = "2"/>
<line x1 = "217.0" y1 = "265" x2 = "217.0" y2 = "275" stroke = "black" stroke-width = "2"/>
  <text alignment-baseline="middle" font-family="Arial" font-size="12px" text-anchor="middle" x="217.0" y="245.0">Integer</text>
  <rect fill="#87DE87" height="50" rx="10" ry="10" stroke="black" width="80" x="349" y="215"/>
<line x1 = "389.0" y1 = "215" x2 = "389.0" y2 = "205" stroke = "black" stroke-width = "2"/>
  <text alignment-baseline="middle" font-family="Arial" font-size="12px" text-anchor="middle" x="389.0" y="245.0">Floating Point</text>
  <rect fill="#87DE87" height="50" rx="10" ry="10" stroke="black" width="80" x="521" y="215"/>
<line x1 = "561.0" y1 = "215" x2 = "561.0" y2 = "205" stroke = "black" stroke-width = "2"/>
<line x1 = "561.0" y1 = "265" x2 = "561.0" y2 = "275" stroke = "black" stroke-width = "2"/>
  <text alignment-baseline="middle" font-family="Arial" font-size="12px" text-anchor="middle" x="561.0" y="245.0">Fixed Point</text>
  <rect fill="#D5FFDf" height="50" rx="10" ry="10" stroke="black" width="80" x="91" y="285"/>
<line x1 = "131.0" y1 = "285" x2 = "131.0" y2 = "275" stroke = "black" stroke-width = "2"/>
  <text alignment-baseline="middle" font-family="Arial" font-size="12px" text-anchor="middle" x="131.0" y="315.0">Signed</text>
  <rect fill="#D5FFDf" height="50" rx="10" ry="10" stroke="black" width="80" x="263" y="285"/>
<line x1 = "303.0" y1 = "285" x2 = "303.0" y2 = "275" stroke = "black" stroke-width = "2"/>
  <text alignment-baseline="middle" font-family="Arial" font-size="12px" text-anchor="middle" x="303.0" y="315.0">Modular</text>
  <rect fill="#D5FFDf" height="50" rx="10" ry="10" stroke="black" width="80" x="435" y="285"/>
<line x1 = "475.0" y1 = "285" x2 = "475.0" y2 = "275" stroke = "black" stroke-width = "2"/>
  <text alignment-baseline="middle" font-family="Arial" font-size="12px" text-anchor="middle" x="475.0" y="315.0">Ordinary</text>
  <rect fill="#D5FFDf" height="50" rx="10" ry="10" stroke="black" width="80" x="607" y="285"/>
<line x1 = "647.0" y1 = "285" x2 = "647.0" y2 = "275" stroke = "black" stroke-width = "2"/>
  <text alignment-baseline="middle" font-family="Arial" font-size="12px" text-anchor="middle" x="647.0" y="315.0">Decimal</text>
<line x1 = "302.0" y1 = "65" x2 = "820.0" y2 = "65" stroke = "black" stroke-width = "2"/>
<line x1 = "130.0" y1 = "135" x2 = "476.0" y2 = "135" stroke = "black" stroke-width = "2"/>
<line x1 = "646.0" y1 = "135" x2 = "992.0" y2 = "135" stroke = "black" stroke-width = "2"/>
<line x1 = "44.0" y1 = "205" x2 = "218.0" y2 = "205" stroke = "black" stroke-width = "2"/>
<line x1 = "388.0" y1 = "205" x2 = "562.0" y2 = "205" stroke = "black" stroke-width = "2"/>
<line x1 = "130.0" y1 = "275" x2 = "304.0" y2 = "275" stroke = "black" stroke-width = "2"/>
<line x1 = "474.0" y1 = "275" x2 = "648.0" y2 = "275" stroke = "black" stroke-width = "2"/>
</svg>
