<?xml version="1.0" encoding="UTF-8" standalone="no"?>
<!-- Created with Inkscape (http://www.inkscape.org/) -->

<svg
   width="100mm"
   height="100mm"
   viewBox="0 0 100 100"
   version="1.1"
   id="svg1"
   inkscape:version="1.3.2 (091e20e, 2023-11-25, custom)"
   sodipodi:docname="warn.svg"
   inkscape:export-filename="warn.pdf"
   inkscape:export-xdpi="96"
   inkscape:export-ydpi="96"
   xmlns:inkscape="http://www.inkscape.org/namespaces/inkscape"
   xmlns:sodipodi="http://sodipodi.sourceforge.net/DTD/sodipodi-0.dtd"
   xmlns="http://www.w3.org/2000/svg"
   xmlns:svg="http://www.w3.org/2000/svg">
  <sodipodi:namedview
     id="namedview1"
     pagecolor="#ffffff"
     bordercolor="#000000"
     borderopacity="0.25"
     inkscape:showpageshadow="2"
     inkscape:pageopacity="0.0"
     inkscape:pagecheckerboard="0"
     inkscape:deskcolor="#d1d1d1"
     inkscape:document-units="mm"
     inkscape:zoom="2.245064"
     inkscape:cx="242.75477"
     inkscape:cy="190.86316"
     inkscape:window-width="1920"
     inkscape:window-height="1129"
     inkscape:window-x="-8"
     inkscape:window-y="-8"
     inkscape:window-maximized="1"
     inkscape:current-layer="layer1" />
  <defs
     id="defs1" />
  <g
     inkscape:label="Calque 1"
     inkscape:groupmode="layer"
     id="layer1">
    <path
       style="fill:#808000;stroke-width:1;stroke:#000000;stroke-opacity:1;stroke-dasharray:none"
       d="M 49.666667,0.5 C 0.66666665,99.833331 0.66666665,99.833331 0.66666665,99.833331"
       id="path1" />
    <path
       style="fill:#808000;stroke:#000000;stroke-width:1;stroke-dasharray:none;stroke-opacity:1"
       d="m 50.292161,0.43369569 c 49,99.33333131 49,99.33333131 49,99.33333131"
       id="path1-5" />
    <path
       style="fill:#808000;stroke:#000000;stroke-width:1;stroke-dasharray:none;stroke-opacity:1"
       d="M 0.58925565,99.702055 99.112799,99.3485"
       id="path2" />
    <path
       style="fill:#ffff00;stroke:#000000;stroke-width:1.68348;stroke-dasharray:none;stroke-opacity:1;fill-opacity:1"
       d="M 9.0783283,368.96317 C 14.946175,356.70744 188.41687,5.3860673 188.77959,5.023348 c 0.20824,-0.208239 41.29045,82.554573 91.29379,183.917362 50.00335,101.36279 90.87579,184.32999 90.82764,184.37156 -0.0482,0.0416 -64.22825,0.29509 -142.62245,0.56338 -78.3942,0.26829 -160.425,0.61026 -182.29066,0.75995 l -39.7557467,0.27214 z"
       id="path3"
       transform="scale(0.26458333)" />
    <path
       style="fill:#808000;stroke:#000000;stroke-width:0.853229;stroke-dasharray:none;stroke-opacity:1"
       d="M 49.697825,9.0525545 C 8.8292464,95.755362 8.8292464,95.755362 8.8292464,95.755362"
       id="path1-7" />
    <path
       style="fill:#808000;stroke:#000000;stroke-width:0.853229;stroke-dasharray:none;stroke-opacity:1"
       d="M 50.21952,8.9946815 C 91.088102,95.697479 91.088102,95.697479 91.088102,95.697479"
       id="path1-5-5" />
    <path
       style="fill:#808000;stroke:#000000;stroke-width:0.853229;stroke-dasharray:none;stroke-opacity:1"
       d="M 8.7646823,95.640776 90.938498,95.332166"
       id="path2-7" />
    <path
       style="fill:#fffb69;fill-opacity:1;stroke:#000000;stroke-width:0.380046;stroke-dasharray:none;stroke-opacity:1"
       d="M 10.276585,93.82477 C 11.57148,90.994423 49.852372,9.8599938 49.932416,9.7762265 c 0.04596,-0.048096 9.111829,19.0652165 20.146386,42.4740165 11.03456,23.408802 20.054143,42.569314 20.043518,42.578911 -0.01061,0.01 -14.17366,0.06818 -31.473411,0.130112 -17.299751,0.06198 -35.402014,0.140929 -40.22725,0.175498 l -8.7731562,0.06288 z"
       id="path3-6" />
    <text
       xml:space="preserve"
       style="font-size:95.4955px;font-family:sans-serif;-inkscape-font-specification:sans-serif;fill:#af3800;fill-opacity:1;stroke:#000000;stroke-width:1.89199;stroke-dasharray:none;stroke-opacity:1"
       x="24.670097"
       y="102.00785"
       id="text3"
       transform="scale(1.1492068,0.87016538)"><tspan
         sodipodi:role="line"
         id="tspan3"
         style="font-size:95.4955px;fill:#af3800;fill-opacity:1;stroke-width:1.89199;stroke-dasharray:none"
         x="24.670097"
         y="102.00785">!</tspan></text>
    <path
       style="fill:#af3800;fill-opacity:1;stroke:#000000;stroke-width:4.20871;stroke-dasharray:none;stroke-opacity:1"
       d="m 8.0175887,373.84425 c 0,-0.39458 54.7480243,-111.47848 128.2707713,-260.26174 16.70631,-33.807502 35.40084,-71.638668 41.54338,-84.069259 9.18516,-18.587902 11.27795,-22.5100358 11.78604,-22.088362 0.33978,0.2819929 0.51887,0.7704721 0.39798,1.0855095 -0.12089,0.3150374 9.2125,19.5752465 20.74087,42.8004675 47.29082,95.272744 158.55845,320.926774 158.34894,321.136284 -0.0486,0.0486 -73.94711,0.30025 -164.21892,0.55923 -90.27182,0.25898 -171.496734,0.60446 -180.499818,0.76774 -9.003084,0.16328 -16.3692433,0.19484 -16.3692433,0.0701 z M 249.88151,362.51364 c 77.94527,-0.23609 93.96436,-0.38662 94.96532,-0.89238 l 1.20406,-0.60838 -1.75573,-3.67406 C 343.3295,355.31808 308.57186,281.60667 267.05596,193.53568 204.10512,59.993037 191.43967,33.433821 190.77241,33.570449 c -1.18822,0.243303 -3.3938,0.262678 -4.03419,0.03544 -0.37387,-0.132664 -26.38865,54.582556 -77.8328,163.700761 -62.813921,133.23462 -77.147093,163.9695 -76.607728,164.27134 0.364928,0.20423 0.663506,0.69407 0.663506,1.08855 0,0.65731 5.144354,0.69274 61.579535,0.42416 33.868747,-0.16118 103.772097,-0.42086 155.340777,-0.57706 z"
       id="path4"
       transform="scale(0.26458333)" />
  </g>
</svg>
